<svg width="266" height="314" viewBox="0 0 266 314" fill="none" xmlns="http://www.w3.org/2000/svg">
<path d="M157.1 313.137H260.77C263.66 313.137 266 310.793 266 307.902V202.441C266 199.55 263.66 197.206 260.77 197.206H235.01C231.33 197.206 228.8 193.503 230.13 190.071L263.22 105.096C264.56 101.664 262.03 97.962 258.34 97.962H235.06C231.37 97.962 228.83 94.2344 230.2 90.798L263.16 7.6386C264.52 4.20214 261.99 0.474609 258.29 0.474609H157.1C70.76 0.474609 0.76001 70.4669 0.76001 156.806C0.76001 243.145 70.76 313.137 157.1 313.137Z" fill="#47B172"/>
</svg>
