<svg width="325" height="324" viewBox="0 0 325 324" fill="none" xmlns="http://www.w3.org/2000/svg">
<path fill-rule="evenodd" clip-rule="evenodd" d="M299.061 249.066C297.879 250.907 295.305 251.151 293.756 249.607L74.3918 30.9644C72.8363 29.4141 73.0814 26.8276 74.9332 25.6465C100.149 9.56348 130.124 0.239746 162.282 0.239746C251.906 0.239746 324.563 72.6553 324.563 161.986C324.563 194.048 315.203 223.93 299.061 249.066ZM220.844 312.878C222.429 312.267 224.213 312.428 225.643 313.345L235.599 319.728C237.134 320.712 239.077 320.831 240.704 320.007C260.855 309.806 276.116 297.28 290.987 280.62C292.209 279.25 292.134 277.165 290.834 275.869L57.2108 43.0225C55.9082 41.7241 53.8186 41.6567 52.4628 42.8994C20.2104 72.4604 0 114.872 0 161.986C0 251.317 72.6575 323.732 162.282 323.732C182.932 323.732 202.677 319.887 220.844 312.878Z" fill="#FF764A"/>
</svg>
