<svg xmlns="http://www.w3.org/2000/svg" fill="none" viewBox="0 0 106 103" height="103" width="106">
<path fill="black" d="M53.2559 102.301C35.8297 90.6139 13.2028 68.5629 1.20541 51.577C13.2028 34.5911 35.8297 12.5411 53.2559 0.854431C70.6822 12.5411 93.3101 34.5911 105.307 51.577C93.3091 68.5629 70.6822 90.6139 53.2559 102.301Z" clip-rule="evenodd" fill-rule="evenodd"></path>
<path fill="#C09667" d="M33.559 78.239V74.771H34.111V77.744H35.402V78.239H33.559ZM37.44 78.239L37.215 77.343H36.325L36.112 78.239H35.571L36.487 74.77H37.07L37.997 78.239H37.44ZM36.762 75.521L36.435 76.886H37.101L36.762 75.521ZM40.502 76.886H39.888V78.24H39.336V74.771H40.502C41.185 74.771 41.435 75.141 41.435 75.657V76.006C41.435 76.516 41.185 76.886 40.502 76.886ZM40.877 75.646C40.877 75.391 40.788 75.235 40.508 75.235H39.888V76.427H40.508C40.788 76.427 40.877 76.266 40.877 76.01V75.646ZM43.346 78.239L43.122 77.343H42.232L42.018 78.239H41.477L42.393 74.77H42.977L43.903 78.239H43.346ZM42.669 75.521L42.341 76.886H43.008L42.669 75.521ZM45.19 78.328C44.534 78.328 44.096 77.911 44.096 77.353V77.186H44.642V77.245C44.642 77.661 44.836 77.859 45.206 77.859C45.554 77.859 45.737 77.651 45.737 77.359C45.737 77.067 45.595 76.916 45.075 76.676C44.612 76.462 44.143 76.186 44.143 75.635C44.143 75.114 44.523 74.686 45.184 74.686C45.84 74.686 46.262 75.098 46.262 75.661V75.797H45.731V75.74C45.731 75.422 45.57 75.151 45.169 75.151C44.851 75.151 44.695 75.339 44.695 75.583C44.695 75.859 44.84 75.984 45.434 76.271C46.044 76.562 46.294 76.824 46.294 77.297C46.294 77.88 45.852 78.328 45.19 78.328ZM47.7 78.328C47.044 78.328 46.607 77.911 46.607 77.353V77.186H47.154V77.245C47.154 77.661 47.346 77.859 47.717 77.859C48.065 77.859 48.247 77.651 48.247 77.359C48.247 77.067 48.106 76.916 47.586 76.676C47.123 76.462 46.654 76.186 46.654 75.635C46.654 75.114 47.034 74.686 47.695 74.686C48.351 74.686 48.773 75.098 48.773 75.661V75.797H48.242V75.74C48.242 75.422 48.081 75.151 47.679 75.151C47.362 75.151 47.206 75.339 47.206 75.583C47.206 75.859 47.351 75.984 47.945 76.271C48.554 76.562 48.804 76.824 48.804 77.297C48.804 77.88 48.361 78.328 47.7 78.328ZM49.311 74.771H49.863V78.239H49.311V74.771ZM51.576 78.328C50.8 78.328 50.457 77.844 50.457 77.203V75.807C50.457 75.172 50.8 74.688 51.576 74.688C52.358 74.688 52.696 75.172 52.696 75.807V77.203C52.696 77.844 52.358 78.328 51.576 78.328ZM52.144 75.771C52.144 75.417 51.967 75.167 51.576 75.167C51.191 75.167 51.014 75.417 51.014 75.771V77.241C51.014 77.595 51.191 77.845 51.576 77.845C51.967 77.845 52.144 77.595 52.144 77.241V75.771ZM55.159 78.239L54.165 76.583L53.811 75.947V78.239H53.291V74.771H53.717L54.686 76.458L55.024 77.093V74.771H55.544V78.239H55.159ZM58.305 78.239H57.17V74.77H58.305C59.044 74.77 59.378 75.228 59.378 75.791V77.218C59.378 77.781 59.044 78.239 58.305 78.239ZM58.827 75.849C58.827 75.485 58.649 75.266 58.259 75.266H57.723V77.745H58.259C58.65 77.745 58.827 77.526 58.827 77.166V75.849ZM61.086 78.328C60.43 78.328 59.967 77.963 59.967 77.323V74.77H60.524V77.311C60.524 77.665 60.702 77.859 61.087 77.859C61.478 77.859 61.654 77.666 61.654 77.311V74.77H62.206V77.323C62.206 77.963 61.749 78.328 61.086 78.328ZM64.893 78.328C64.118 78.328 63.775 77.807 63.775 77.245V75.765C63.775 75.203 64.118 74.687 64.893 74.687C65.674 74.687 65.993 75.146 65.993 75.704V75.985H65.493V75.74C65.493 75.386 65.3 75.167 64.91 75.167C64.518 75.167 64.327 75.396 64.327 75.714V77.302C64.327 77.615 64.518 77.844 64.91 77.844C65.3 77.844 65.493 77.625 65.493 77.27V77.027H65.993V77.307C65.993 77.865 65.674 78.328 64.893 78.328ZM68.082 78.239L67.858 77.343H66.967L66.753 78.239H66.212L67.128 74.77H67.712L68.638 78.239H68.082ZM67.405 75.521L67.077 76.886H67.743L67.405 75.521ZM69.551 75.261V76.266H70.556V76.745H69.551V78.239H68.999V74.766H70.863V75.261H69.551ZM71.269 78.239V74.77H73.144V75.265H71.821V76.176H72.774V76.645H71.821V77.745H73.144V78.239H71.269ZM72.295 74.563H71.972L72.205 73.819H72.731L72.295 74.563ZM42.539 83.448H41.404V79.98H42.539C43.279 79.98 43.612 80.437 43.612 81.001V82.428C43.612 82.99 43.279 83.448 42.539 83.448ZM43.06 81.058C43.06 80.694 42.882 80.475 42.493 80.475H41.956V82.954H42.493C42.882 82.954 43.06 82.735 43.06 82.375V81.058ZM44.206 83.448V79.98H46.08V80.475H44.758V81.386H45.711V81.855H44.758V82.953H46.08V83.448H44.206ZM47.742 82.094H47.127V83.448H46.575V79.979H47.742C48.424 79.979 48.674 80.349 48.674 80.865V81.214C48.674 81.725 48.424 82.094 47.742 82.094ZM48.117 80.854C48.117 80.599 48.028 80.443 47.747 80.443H47.127V81.635H47.747C48.028 81.635 48.117 81.474 48.117 81.218V80.854ZM50.273 83.537C49.617 83.537 49.154 83.172 49.154 82.532V79.98H49.711V82.52C49.711 82.874 49.887 83.068 50.273 83.068C50.664 83.068 50.84 82.875 50.84 82.52V79.98H51.392V82.532C51.393 83.172 50.935 83.537 50.273 83.537ZM52.034 79.979H52.586V83.447H52.034V79.979ZM54.186 83.537C53.53 83.537 53.092 83.12 53.092 82.562V82.395H53.639V82.454C53.639 82.87 53.832 83.068 54.201 83.068C54.55 83.068 54.732 82.86 54.732 82.568C54.732 82.276 54.592 82.125 54.071 81.885C53.607 81.671 53.139 81.395 53.139 80.844C53.139 80.323 53.519 79.895 54.18 79.895C54.837 79.895 55.259 80.307 55.259 80.87V81.006H54.728V80.949C54.728 80.631 54.567 80.36 54.165 80.36C53.847 80.36 53.691 80.548 53.691 80.792C53.691 81.068 53.836 81.193 54.43 81.479C55.04 81.771 55.29 82.033 55.29 82.506C55.29 83.089 54.846 83.537 54.186 83.537ZM56.858 83.448V80.224C57.035 80.224 57.096 80.105 57.096 79.98H57.382V83.448H56.858ZM59.082 83.537C58.421 83.537 58.061 83.161 58.061 82.646V82.521H58.53V82.562C58.53 82.938 58.759 83.099 59.106 83.099C59.457 83.099 59.612 82.88 59.612 82.531V81.808C59.5345 81.9245 59.428 82.0188 59.3029 82.0815C59.1779 82.1443 59.0387 82.1734 58.899 82.166C58.352 82.166 58.045 81.786 58.045 81.327V80.895C58.045 80.296 58.42 79.89 59.076 79.89C59.777 79.89 60.128 80.29 60.128 80.911V82.515C60.128 83.156 59.737 83.537 59.082 83.537ZM59.612 80.875C59.612 80.579 59.446 80.329 59.077 80.329C58.727 80.329 58.546 80.537 58.546 80.828V81.25C58.546 81.537 58.701 81.756 59.077 81.756C59.426 81.756 59.612 81.527 59.612 81.25V80.875ZM61.707 83.531C61.051 83.531 60.659 83.131 60.659 82.531V80.943C60.659 80.302 61.061 79.891 61.722 79.891C62.379 79.891 62.712 80.333 62.712 80.813V80.938H62.237V80.896C62.237 80.516 62.046 80.329 61.69 80.329C61.342 80.329 61.17 80.553 61.17 80.943V81.682C61.2622 81.5682 61.3791 81.4768 61.5118 81.4146C61.6444 81.3524 61.7895 81.3211 61.936 81.323C62.457 81.323 62.743 81.672 62.743 82.131V82.531C62.743 83.131 62.368 83.531 61.707 83.531ZM62.243 82.214C62.243 81.917 62.112 81.714 61.722 81.714C61.374 81.714 61.171 81.939 61.171 82.214V82.547C61.171 82.881 61.379 83.1 61.707 83.1C62.034 83.1 62.243 82.892 62.243 82.6V82.214ZM64.202 83.537C63.546 83.537 63.171 83.167 63.171 82.604V82.338C63.171 82.021 63.369 81.781 63.597 81.682C63.4719 81.6248 63.3663 81.5322 63.2934 81.4156C63.2206 81.299 63.1835 81.1635 63.187 81.026V80.823C63.187 80.26 63.546 79.891 64.203 79.891C64.863 79.891 65.218 80.26 65.218 80.823V81.026C65.2214 81.1629 65.185 81.2978 65.1131 81.4143C65.0412 81.5308 64.9369 81.6238 64.813 81.682C65.037 81.782 65.235 82.021 65.235 82.338V82.604C65.233 83.167 64.862 83.537 64.202 83.537ZM64.749 82.37C64.749 82.141 64.592 81.865 64.202 81.865C63.811 81.865 63.655 82.141 63.655 82.37V82.563C63.655 82.907 63.893 83.099 64.202 83.099C64.508 83.099 64.749 82.907 64.749 82.563V82.37ZM64.733 80.865C64.733 80.516 64.507 80.329 64.202 80.329C63.893 80.329 63.671 80.517 63.671 80.865V81.026C63.671 81.255 63.812 81.532 64.202 81.532C64.592 81.532 64.733 81.256 64.733 81.026V80.865Z"></path>
<path fill="white" d="M33.559 78.239V74.771H34.111V77.744H35.402V78.239H33.559ZM37.44 78.239L37.215 77.343H36.325L36.112 78.239H35.571L36.487 74.77H37.07L37.997 78.239H37.44ZM36.762 75.521L36.435 76.886H37.101L36.762 75.521ZM40.502 76.886H39.888V78.24H39.336V74.771H40.502C41.185 74.771 41.435 75.141 41.435 75.657V76.006C41.435 76.516 41.185 76.886 40.502 76.886ZM40.877 75.646C40.877 75.391 40.788 75.235 40.508 75.235H39.888V76.427H40.508C40.788 76.427 40.877 76.266 40.877 76.01V75.646ZM43.346 78.239L43.122 77.343H42.232L42.018 78.239H41.477L42.393 74.77H42.977L43.903 78.239H43.346ZM42.669 75.521L42.341 76.886H43.008L42.669 75.521ZM45.19 78.328C44.534 78.328 44.096 77.911 44.096 77.353V77.186H44.642V77.245C44.642 77.661 44.836 77.859 45.206 77.859C45.554 77.859 45.737 77.651 45.737 77.359C45.737 77.067 45.595 76.916 45.075 76.676C44.612 76.462 44.143 76.186 44.143 75.635C44.143 75.114 44.523 74.686 45.184 74.686C45.84 74.686 46.262 75.098 46.262 75.661V75.797H45.731V75.74C45.731 75.422 45.57 75.151 45.169 75.151C44.851 75.151 44.695 75.339 44.695 75.583C44.695 75.859 44.84 75.984 45.434 76.271C46.044 76.562 46.294 76.824 46.294 77.297C46.294 77.88 45.852 78.328 45.19 78.328ZM47.7 78.328C47.044 78.328 46.607 77.911 46.607 77.353V77.186H47.154V77.245C47.154 77.661 47.346 77.859 47.717 77.859C48.065 77.859 48.247 77.651 48.247 77.359C48.247 77.067 48.106 76.916 47.586 76.676C47.123 76.462 46.654 76.186 46.654 75.635C46.654 75.114 47.034 74.686 47.695 74.686C48.351 74.686 48.773 75.098 48.773 75.661V75.797H48.242V75.74C48.242 75.422 48.081 75.151 47.679 75.151C47.362 75.151 47.206 75.339 47.206 75.583C47.206 75.859 47.351 75.984 47.945 76.271C48.554 76.562 48.804 76.824 48.804 77.297C48.804 77.88 48.361 78.328 47.7 78.328ZM49.311 74.771H49.863V78.239H49.311V74.771ZM51.576 78.328C50.8 78.328 50.457 77.844 50.457 77.203V75.807C50.457 75.172 50.8 74.688 51.576 74.688C52.358 74.688 52.696 75.172 52.696 75.807V77.203C52.696 77.844 52.358 78.328 51.576 78.328ZM52.144 75.771C52.144 75.417 51.967 75.167 51.576 75.167C51.191 75.167 51.014 75.417 51.014 75.771V77.241C51.014 77.595 51.191 77.845 51.576 77.845C51.967 77.845 52.144 77.595 52.144 77.241V75.771ZM55.159 78.239L54.165 76.583L53.811 75.947V78.239H53.291V74.771H53.717L54.686 76.458L55.024 77.093V74.771H55.544V78.239H55.159ZM58.305 78.239H57.17V74.77H58.305C59.044 74.77 59.378 75.228 59.378 75.791V77.218C59.378 77.781 59.044 78.239 58.305 78.239ZM58.827 75.849C58.827 75.485 58.649 75.266 58.259 75.266H57.723V77.745H58.259C58.65 77.745 58.827 77.526 58.827 77.166V75.849ZM61.086 78.328C60.43 78.328 59.967 77.963 59.967 77.323V74.77H60.524V77.311C60.524 77.665 60.702 77.859 61.087 77.859C61.478 77.859 61.654 77.666 61.654 77.311V74.77H62.206V77.323C62.206 77.963 61.749 78.328 61.086 78.328ZM64.893 78.328C64.118 78.328 63.775 77.807 63.775 77.245V75.765C63.775 75.203 64.118 74.687 64.893 74.687C65.674 74.687 65.993 75.146 65.993 75.704V75.985H65.493V75.74C65.493 75.386 65.3 75.167 64.91 75.167C64.518 75.167 64.327 75.396 64.327 75.714V77.302C64.327 77.615 64.518 77.844 64.91 77.844C65.3 77.844 65.493 77.625 65.493 77.27V77.027H65.993V77.307C65.993 77.865 65.674 78.328 64.893 78.328ZM68.082 78.239L67.858 77.343H66.967L66.753 78.239H66.212L67.128 74.77H67.712L68.638 78.239H68.082ZM67.405 75.521L67.077 76.886H67.743L67.405 75.521ZM69.551 75.261V76.266H70.556V76.745H69.551V78.239H68.999V74.766H70.863V75.261H69.551ZM71.269 78.239V74.77H73.144V75.265H71.821V76.176H72.774V76.645H71.821V77.745H73.144V78.239H71.269ZM72.295 74.563H71.972L72.205 73.819H72.731L72.295 74.563ZM42.539 83.448H41.404V79.98H42.539C43.279 79.98 43.612 80.437 43.612 81.001V82.428C43.612 82.99 43.279 83.448 42.539 83.448ZM43.06 81.058C43.06 80.694 42.882 80.475 42.493 80.475H41.956V82.954H42.493C42.882 82.954 43.06 82.735 43.06 82.375V81.058ZM44.206 83.448V79.98H46.08V80.475H44.758V81.386H45.711V81.855H44.758V82.953H46.08V83.448H44.206ZM47.742 82.094H47.127V83.448H46.575V79.979H47.742C48.424 79.979 48.674 80.349 48.674 80.865V81.214C48.674 81.725 48.424 82.094 47.742 82.094ZM48.117 80.854C48.117 80.599 48.028 80.443 47.747 80.443H47.127V81.635H47.747C48.028 81.635 48.117 81.474 48.117 81.218V80.854ZM50.273 83.537C49.617 83.537 49.154 83.172 49.154 82.532V79.98H49.711V82.52C49.711 82.874 49.887 83.068 50.273 83.068C50.664 83.068 50.84 82.875 50.84 82.52V79.98H51.392V82.532C51.393 83.172 50.935 83.537 50.273 83.537ZM52.034 79.979H52.586V83.447H52.034V79.979ZM54.186 83.537C53.53 83.537 53.092 83.12 53.092 82.562V82.395H53.639V82.454C53.639 82.87 53.832 83.068 54.201 83.068C54.55 83.068 54.732 82.86 54.732 82.568C54.732 82.276 54.592 82.125 54.071 81.885C53.607 81.671 53.139 81.395 53.139 80.844C53.139 80.323 53.519 79.895 54.18 79.895C54.837 79.895 55.259 80.307 55.259 80.87V81.006H54.728V80.949C54.728 80.631 54.567 80.36 54.165 80.36C53.847 80.36 53.691 80.548 53.691 80.792C53.691 81.068 53.836 81.193 54.43 81.479C55.04 81.771 55.29 82.033 55.29 82.506C55.29 83.089 54.846 83.537 54.186 83.537ZM56.858 83.448V80.224C57.035 80.224 57.096 80.105 57.096 79.98H57.382V83.448H56.858ZM59.082 83.537C58.421 83.537 58.061 83.161 58.061 82.646V82.521H58.53V82.562C58.53 82.938 58.759 83.099 59.106 83.099C59.457 83.099 59.612 82.88 59.612 82.531V81.808C59.5345 81.9245 59.428 82.0188 59.3029 82.0815C59.1779 82.1443 59.0387 82.1734 58.899 82.166C58.352 82.166 58.045 81.786 58.045 81.327V80.895C58.045 80.296 58.42 79.89 59.076 79.89C59.777 79.89 60.128 80.29 60.128 80.911V82.515C60.128 83.156 59.737 83.537 59.082 83.537ZM59.612 80.875C59.612 80.579 59.446 80.329 59.077 80.329C58.727 80.329 58.546 80.537 58.546 80.828V81.25C58.546 81.537 58.701 81.756 59.077 81.756C59.426 81.756 59.612 81.527 59.612 81.25V80.875ZM61.707 83.531C61.051 83.531 60.659 83.131 60.659 82.531V80.943C60.659 80.302 61.061 79.891 61.722 79.891C62.379 79.891 62.712 80.333 62.712 80.813V80.938H62.237V80.896C62.237 80.516 62.046 80.329 61.69 80.329C61.342 80.329 61.17 80.553 61.17 80.943V81.682C61.2623 81.5682 61.3791 81.4768 61.5118 81.4146C61.6444 81.3524 61.7895 81.3211 61.936 81.323C62.457 81.323 62.743 81.672 62.743 82.131V82.531C62.743 83.131 62.368 83.531 61.707 83.531ZM62.243 82.214C62.243 81.917 62.112 81.714 61.722 81.714C61.374 81.714 61.171 81.939 61.171 82.214V82.547C61.171 82.881 61.379 83.1 61.707 83.1C62.034 83.1 62.243 82.892 62.243 82.6V82.214ZM64.202 83.537C63.546 83.537 63.171 83.167 63.171 82.604V82.338C63.171 82.021 63.369 81.781 63.597 81.682C63.4719 81.6248 63.3664 81.5322 63.2935 81.4156C63.2206 81.299 63.1836 81.1635 63.187 81.026V80.823C63.187 80.26 63.546 79.891 64.203 79.891C64.863 79.891 65.218 80.26 65.218 80.823V81.026C65.2215 81.1629 65.185 81.2978 65.1131 81.4143C65.0412 81.5308 64.9369 81.6238 64.813 81.682C65.037 81.782 65.235 82.021 65.235 82.338V82.604C65.233 83.167 64.862 83.537 64.202 83.537ZM64.749 82.37C64.749 82.141 64.592 81.865 64.202 81.865C63.811 81.865 63.655 82.141 63.655 82.37V82.563C63.655 82.907 63.893 83.099 64.202 83.099C64.508 83.099 64.749 82.907 64.749 82.563V82.37ZM64.733 80.865C64.733 80.516 64.507 80.329 64.202 80.329C63.893 80.329 63.671 80.517 63.671 80.865V81.026C63.671 81.255 63.812 81.532 64.202 81.532C64.592 81.532 64.733 81.256 64.733 81.026V80.865ZM28.803 76.201H31.917V76.661H28.803V76.201ZM74.674 76.201H77.787V76.661H74.674V76.201Z"></path>
<path fill="white" d="M38.883 44.694V40.979C38.883 38.484 37.393 37.342 35.11 37.342C33.253 37.342 31.879 38.232 31.299 39.818L32.325 40.186C32.777 38.923 33.594 38.522 34.445 38.522C35.743 38.522 36.368 39.424 36.368 41.173V41.501L34.607 41.985C32.44 42.585 31.047 43.301 31.047 45.235C31.047 46.802 32.111 47.692 33.466 47.692C34.988 47.692 35.973 47.075 36.681 46.452C37.161 47.187 38.181 47.587 39.129 47.692L39.405 47.16C38.824 46.792 38.883 45.72 38.883 44.694ZM33.698 44.83C33.698 43.708 34.317 42.992 35.652 42.586L36.368 42.373V45.723C35.772 46.128 35.263 46.262 34.723 46.262C34.104 46.262 33.698 45.72 33.698 44.83ZM42.985 42.45C42.985 45.255 43.585 46.512 45.016 46.512C45.964 46.512 46.545 45.932 47.087 44.888L47.802 45.313C47.26 46.725 46.138 47.693 44.436 47.693C41.631 47.693 40.315 45.758 40.315 42.566C40.315 39.006 42.25 37.343 44.707 37.343C46.158 37.343 47.511 38.097 48.053 39.742L47.035 40.2C46.84 39.153 46.171 38.523 45.193 38.523C43.766 38.523 42.985 39.86 42.985 42.45ZM66.086 37.536V43.862C66.086 46.397 64.519 47.693 62.273 47.693C59.72 47.693 58.424 46.416 58.424 43.843V37.536H60.939V43.997C60.939 45.642 61.384 46.513 62.603 46.513C63.725 46.513 64.305 45.623 64.305 43.978V37.536H66.086ZM69.956 42.701C69.995 45.584 70.827 46.512 72.239 46.512C73.071 46.512 73.962 46.164 74.677 45.023L75.392 45.448C74.774 46.822 73.477 47.692 71.929 47.692C68.834 47.692 67.403 45.623 67.403 42.43C67.403 39.006 69.511 37.342 71.735 37.342C74.755 37.342 75.973 39.606 75.604 42.701H69.956ZM69.956 41.753H73.227C73.187 40.128 72.859 38.523 71.679 38.523C70.729 38.523 70.073 39.432 69.956 41.753ZM83.77 39.645L82.801 40.106C82.338 39.232 81.557 38.523 80.373 38.523C79.383 38.523 78.934 39.06 78.934 39.625C78.934 40.496 79.514 40.767 81.12 41.502C82.88 42.314 83.673 43.263 83.673 44.617C83.673 46.184 82.513 47.693 79.882 47.693C78.334 47.693 76.96 47.035 76.361 45.623L77.444 44.926C78.005 46.01 78.837 46.513 79.803 46.513C80.809 46.513 81.352 45.99 81.352 45.217C81.352 44.462 80.772 43.978 79.244 43.282C77.598 42.527 76.651 41.812 76.651 40.303C76.651 38.484 78.315 37.343 80.229 37.343C81.914 37.343 83.143 38.208 83.77 39.645ZM23.614 34.915V35.605H27.043V45.67C27.043 47.43 26.52 48.049 25.688 48.049C25.127 48.049 24.586 47.759 24.063 47.237L23.429 47.991C24.087 48.629 24.721 49.249 25.998 49.249C27.913 49.249 29.615 48.204 29.615 45.283V34.915H23.614ZM55.114 46.941C56.252 46.136 57.012 44.692 57.012 42.625C57.012 39.413 55.58 37.343 52.717 37.343C50.338 37.343 48.364 39.045 48.364 42.431C48.364 45.642 49.815 47.693 52.659 47.693H57.903V46.941H55.114ZM50.956 42.489C50.956 39.722 51.518 38.523 52.697 38.523C53.762 38.523 54.4 39.742 54.4 42.566C54.4 45.12 53.878 46.513 52.679 46.513C51.614 46.513 50.956 45.101 50.956 42.489ZM24.745 68.112L17.682 49.495H22.021L26.87 63.513L31.869 49.495H33.904L26.84 68.112H24.745ZM39.313 51L45.751 68.112H41.761L40.276 63.884H34.223L32.737 68.112H30.895L37.25 51H39.313ZM34.903 62.399H39.911L37.434 55.352L34.903 62.399ZM52.335 51C56.902 51 58.911 52.787 58.911 55.178C58.911 57.267 57.673 58.475 55.665 59.103C58.333 59.607 59.736 60.84 59.736 63.181C59.736 66.075 57.095 68.113 52.61 68.113H47.025V51H52.335ZM50.712 52.484V58.498H52.17C54.096 58.498 55.114 57.115 55.114 55.352C55.114 53.591 54.096 52.484 52.28 52.484H50.712ZM50.712 59.934V66.654H52.473C55.031 66.654 55.94 65.093 55.94 63.257C55.94 61.369 54.948 59.935 52.583 59.935H50.712V59.934ZM66.678 51C71.906 51 74.188 52.913 74.188 55.881C74.188 58.399 72.565 60.06 69.897 60.789L71.493 63.155C74.463 67.513 75.656 68.804 77.104 69.887L76.581 70.823C74.498 70.214 72.375 69.202 70.722 67.145C69.066 65.087 66.168 61.242 66.168 61.242H65.77V68.112H62.083V51H66.678ZM65.77 52.484V59.858H66.458C69.101 59.858 70.392 58.17 70.392 56.058C70.392 53.893 68.769 52.484 66.293 52.484H65.77ZM87.846 51V52.484H80.529V58.6H85.92V60.06H80.529V66.653H87.846V68.112H76.842V51H87.846Z"></path>
<path fill="white" d="M47.391 25.14C47.391 29.941 49.081 31.768 51.725 31.768C54.26 31.768 56.746 27.571 55.573 21.252C56.507 22.38 57.706 28.038 54.698 31.226C57.148 29.846 58.178 27.016 58.025 23.735C57.876 20.559 56.344 17.411 53.858 17.704C51.561 17.974 51.764 23.119 51.764 24.402C51.764 26.765 51.856 29.598 51.492 30.855C51.112 29.928 50.605 29.107 50.559 25.917C50.544 24.887 50.512 18.92 52.569 17.337C49.1 17.839 47.391 21.617 47.391 25.14"></path>
<path fill="black" d="M92.4163 34.2379C82.8142 21.4647 71.4574 8.83118 61.622 0.410004C60.2354 1.11366 58.8613 1.84151 57.5002 2.59321C68.8247 10.7658 81.7422 22.56 92.4163 34.2379Z" clip-rule="evenodd" fill-rule="evenodd"></path>
<path fill="black" d="M35.6401 13.2584C22.6033 22.5394 9.65258 33.5863 0.967041 43.218C1.63366 44.62 2.32467 46.0102 3.03977 47.3881C11.4616 36.3107 23.6197 23.6758 35.6401 13.2584Z" clip-rule="evenodd" fill-rule="evenodd"></path>
<path fill="black" d="M70.8647 89.9025C83.9061 80.6206 96.8589 69.5689 105.548 59.937C104.881 58.5348 104.189 57.1444 103.472 55.7665C95.0484 66.846 82.8872 79.4839 70.8647 89.9025Z" clip-rule="evenodd" fill-rule="evenodd"></path>
<path fill="black" d="M14.0924 68.912C23.696 81.6863 35.0543 94.3227 44.89 102.745C46.2765 102.041 47.6504 101.313 49.0112 100.561C37.6854 92.3877 24.7668 80.5913 14.0924 68.912Z" clip-rule="evenodd" fill-rule="evenodd"></path>
</svg>
