<svg xmlns="http://www.w3.org/2000/svg" fill="none" viewBox="0 0 69 92" height="92" width="69">
<path fill="black" d="M41.258 84.785C37.5445 89.0375 34.8915 91.4472 34.5422 91.7593C34.5012 91.7619 34.4603 91.7527 34.4244 91.733C33.7198 91.0943 20.3992 78.8348 10.4639 59.1155C8.61336 55.4119 7.05038 51.5714 5.78882 47.6281C5.30404 46.1238 4.84568 44.5676 4.42693 43.002C4.2251 42.2475 4.02987 41.4751 3.84124 40.7083C3.4819 39.2257 3.14803 37.7044 2.84812 36.1869C2.70099 35.4447 2.56235 34.6996 2.43408 33.9724C2.18509 32.5624 1.95591 31.1138 1.75502 29.668C1.56734 28.3155 1.39852 26.9366 1.25516 25.57C1.12123 24.2949 1.00334 23.0019 0.909028 21.7286C0.821316 20.5667 0.749637 19.3774 0.693049 18.1928C0.643063 17.1488 0.605338 16.0783 0.580817 15.0135C0.511968 11.9889 0.568555 9.58953 0.62703 8.10975C0.647779 7.59574 0.669471 7.17321 0.68739 6.85255C0.715684 6.37155 0.736434 6.11596 0.736434 6.11596C0.753545 6.11072 0.932103 6.05726 1.25413 5.96469C4.36994 5.07227 20.8446 0.551455 34.4536 0.551455H34.5394C34.5421 0.551454 34.5447 0.551454 34.5474 0.551453C49.5149 0.553386 67.7765 5.97021 68.2595 6.11349L68.265 6.11502C68.2716 6.1933 68.2905 6.44417 68.3141 6.85255C68.3329 7.17322 68.3546 7.59574 68.3754 8.10975C68.4338 9.58764 68.4904 11.9851 68.4216 15.0135C68.398 16.0444 68.3603 17.1148 68.3094 18.1938C68.2547 19.3548 68.182 20.5441 68.0934 21.7277C67.9991 23.017 67.8793 24.3091 67.7472 25.57C67.6001 26.9593 67.4322 28.3372 67.2474 29.667C67.0456 31.1138 66.8173 32.5625 66.5683 33.9724C66.4372 34.7147 66.2976 35.4598 66.1543 36.1869C65.8544 37.7054 65.5205 39.2267 65.1612 40.7074C64.9725 41.477 64.7773 42.2494 64.5755 43.002C64.1577 44.5667 63.6984 46.1229 63.2126 47.6281C61.9516 51.5715 60.3889 55.412 58.5385 59.1155C56.1873 63.7828 53.6701 68.0107 51.1822 71.7592C47.6248 77.1142 44.1232 81.4996 41.258 84.785ZM37.0208 7.91735C36.3553 7.91735 35.7046 8.11471 35.1513 8.48448C34.5979 8.85424 34.1666 9.3798 33.9119 9.99469C33.6572 10.6096 33.5905 11.2862 33.7204 11.939C33.8502 12.5917 34.1707 13.1913 34.6413 13.662C35.1119 14.1326 35.7115 14.4531 36.3643 14.5829C37.0171 14.7128 37.6937 14.6461 38.3086 14.3914C38.9235 14.1367 39.449 13.7054 39.8188 13.152C40.1886 12.5986 40.3859 11.948 40.3859 11.2825C40.3847 10.3904 40.0297 9.53516 39.3989 8.90435C38.7681 8.27354 37.9129 7.9186 37.0208 7.91735ZM37.0208 14.441C36.3961 14.4412 35.7853 14.2561 35.2658 13.9092C34.7462 13.5622 34.3412 13.069 34.102 12.4918C33.8628 11.9147 33.8001 11.2796 33.9219 10.6668C34.0437 10.0541 34.3444 9.49118 34.7861 9.04936C35.2278 8.60753 35.7906 8.30661 36.4033 8.18466C37.016 8.06271 37.6512 8.12521 38.2284 8.36424C38.8056 8.60328 39.2989 9.00812 39.6461 9.52756C39.9932 10.047 40.1784 10.6577 40.1784 11.2825C40.1774 12.1197 39.8445 12.9224 39.2525 13.5145C38.6606 14.1066 37.858 14.4398 37.0208 14.441ZM35.4731 22.4303C30.8008 22.4303 27.0132 25.9388 27.0132 30.2678C27.013 31.0416 27.0965 31.8132 27.2621 32.569C27.5696 34.0847 28.4241 35.4994 28.4241 35.4994C28.8078 36.2295 29.2474 36.9288 29.7388 37.5912L29.9283 37.8384C30.5188 38.6094 31.8347 40.3272 32.9625 41.7316C33.0742 41.8657 33.1838 41.9977 33.2903 42.1261C33.5697 42.4625 33.8283 42.774 34.0508 43.0341L34.115 43.1086C35.8702 45.025 38.2044 48.4062 38.7062 49.1748C39.1711 49.8907 39.6568 51.2912 39.6634 52.822V52.9342C39.6634 55.524 37.5027 57.6235 34.8355 57.6235C33.6934 57.6314 32.5857 57.2327 31.7106 56.4987C30.8356 55.7646 30.2503 54.7431 30.0595 53.617C30.0199 53.3737 29.9067 53.2841 29.6653 53.3765L26.7415 54.2866C26.6727 54.3055 26.6133 54.3492 26.5748 54.4093C26.5363 54.4694 26.5215 54.5416 26.5331 54.612C27.2518 58.2657 30.7036 61.0348 34.8544 61.0348C39.5257 61.0348 43.3134 57.5263 43.3134 53.1983C43.3134 52.4242 43.2303 51.6524 43.0653 50.8961C42.7579 49.3786 41.9034 47.9648 41.9034 47.9648C41.5177 47.2349 41.0763 46.5358 40.583 45.8739L40.423 45.6649C39.8479 44.9133 38.5071 43.1609 37.3594 41.7335C36.9557 41.2468 36.5784 40.7951 36.2719 40.431L36.2069 40.3565C34.4517 38.4401 32.1174 35.0599 31.6166 34.2893C31.1516 33.5735 30.665 32.1729 30.6593 30.6422V30.53C30.6593 27.9411 32.82 25.8417 35.4872 25.8417C36.5861 25.838 37.6534 26.2091 38.513 26.8938C39.3725 27.5785 39.973 28.5357 40.2152 29.6076C40.2331 29.6868 40.2491 29.767 40.2633 29.8472C40.2906 30.0065 40.4048 30.1518 40.5802 30.1084L43.585 29.1804C43.6539 29.1611 43.7132 29.1172 43.7518 29.0571C43.7904 28.9969 43.8056 28.9246 43.7944 28.854C43.0757 25.2003 39.6229 22.4303 35.4731 22.4303ZM17.0348 36.8282C18.0364 37.4149 20.5121 38.9314 22.222 40.5329C22.3056 40.6133 22.3574 40.7212 22.3679 40.8367C22.3785 40.9522 22.3471 41.0677 22.2796 41.162L18.1713 47.0056C18.1439 47.0447 18.1056 47.0748 18.0612 47.0922C18.0168 47.1096 17.9682 47.1135 17.9216 47.1034C17.875 47.0933 17.8324 47.0697 17.7991 47.0356C17.7659 47.0014 17.7434 46.9582 17.7346 46.9113C17.1829 43.6103 16.7584 38.6589 16.6311 37.0791C16.6276 37.0304 16.6375 36.9816 16.6598 36.9381C16.6821 36.8946 16.7159 36.8581 16.7576 36.8325C16.7992 36.8069 16.8471 36.7932 16.896 36.793C16.9449 36.7927 16.9929 36.8059 17.0348 36.8311V36.8282ZM21.4675 60.6924C20.4244 58.0403 19.5049 54.994 18.7617 51.8779C18.7504 51.8297 18.7492 51.7797 18.7581 51.731C18.7671 51.6823 18.7859 51.636 18.8135 51.5949L24.5855 43.1482C24.6128 43.1069 24.6487 43.072 24.6906 43.0457C24.7325 43.0194 24.7795 43.0024 24.8286 42.9958C24.8776 42.9892 24.9275 42.9932 24.9749 43.0074C25.0223 43.0216 25.066 43.0459 25.1033 43.0784C26.3836 44.1984 27.1085 44.8451 27.5622 45.2499L27.564 45.2514C27.7207 45.3913 27.8451 45.5022 27.9488 45.5938C28.0062 45.6451 28.0813 45.6723 28.1583 45.6695C28.2354 45.6667 28.3083 45.6341 28.3618 45.5787L30.2 42.9219C30.2289 42.8938 30.2519 42.8602 30.2676 42.8231C30.2833 42.786 30.2914 42.7462 30.2914 42.7059C30.2914 42.6656 30.2833 42.6257 30.2676 42.5886C30.2519 42.5515 30.2289 42.5179 30.2 42.4899C29.4144 41.742 24.4639 37.0923 22.1239 35.4984C17.8591 32.5926 14.6496 31.5373 13.3613 31.193C13.3087 31.1785 13.2534 31.1766 13.2 31.1873C13.1465 31.1981 13.0963 31.2212 13.0534 31.2549C13.0104 31.2885 12.976 31.3318 12.9528 31.3811C12.9297 31.4305 12.9184 31.4846 12.9199 31.5391C12.9708 34.4921 13.4443 50.5216 17.6129 60.8292C17.6378 60.8894 17.6801 60.9409 17.7344 60.977C17.7886 61.0131 17.8524 61.0322 17.9176 61.032H21.2383C21.2791 61.0325 21.3194 61.023 21.3556 61.0043C21.3918 60.9856 21.4228 60.9582 21.446 60.9247C21.4691 60.8911 21.4836 60.8523 21.4882 60.8118C21.4927 60.7713 21.4873 60.7303 21.4722 60.6924H21.4675ZM43.4728 42.655C43.3539 42.4663 43.2276 42.273 43.0955 42.0891H43.0908C43.0345 42.0108 42.9597 41.908 42.8699 41.7843C42.6499 41.4814 42.3393 41.0539 41.9864 40.5584C41.5288 39.916 41.7723 39.696 42.1014 39.3987L42.1071 39.3936C43.9745 37.7025 44.9224 36.8867 46.1777 35.8832C48.3026 34.1856 51.9252 31.8155 53.2069 30.9874C53.2528 30.9565 53.3063 30.9389 53.3616 30.9363C53.4169 30.9337 53.4718 30.9463 53.5204 30.9727C53.569 30.9992 53.6095 31.0384 53.6373 31.0863C53.6652 31.1341 53.6794 31.1886 53.6785 31.2439V37.2225C53.6785 37.3029 53.7103 37.38 53.7671 37.4369C53.8238 37.4938 53.9008 37.5259 53.9812 37.5262H55.7741C55.8156 37.5256 55.8567 37.5335 55.895 37.5496C55.9332 37.5657 55.9677 37.5894 55.9963 37.6195C56.0249 37.6495 56.047 37.6851 56.0612 37.7241C56.0754 37.763 56.0813 37.8045 56.0787 37.8459C55.6543 44.2092 54.3811 52.7776 50.9528 60.8829C50.9236 60.9498 50.8756 61.0068 50.8147 61.047C50.7538 61.0872 50.6825 61.1088 50.6095 61.1093H47.3302C47.2961 61.1089 47.2627 61.1001 47.2328 61.0838C47.2029 61.0674 47.1775 61.0439 47.1589 61.0153C47.1402 60.9868 47.1289 60.9541 47.1259 60.9202C47.1229 60.8862 47.1283 60.8521 47.1416 60.8207C49.822 54.464 51.1782 47.8271 51.8384 42.1956C51.8432 42.1532 51.839 42.1103 51.826 42.0697C51.8131 42.029 51.7917 41.9915 51.7634 41.9597C51.735 41.9278 51.7002 41.9023 51.6613 41.8848C51.6224 41.8672 51.5802 41.8581 51.5375 41.858L50.1577 41.8429C50.0779 41.8417 50.0018 41.8092 49.9457 41.7524C49.8896 41.6956 49.8581 41.619 49.8578 41.5392V38.7098C49.8583 38.6547 49.8436 38.6006 49.8156 38.5532C49.7875 38.5057 49.747 38.4669 49.6985 38.4408C49.65 38.4147 49.5953 38.4023 49.5403 38.405C49.4852 38.4077 49.432 38.4254 49.3862 38.4561C49.042 38.6891 48.5506 39.0314 48.1064 39.3992C47.6622 39.7671 46.3107 40.8941 44.1726 42.7644C44.1216 42.8085 44.0616 42.8409 43.9968 42.8595C43.932 42.8781 43.8639 42.8823 43.7973 42.8719C43.7307 42.8615 43.6672 42.8367 43.6111 42.7992C43.5551 42.7617 43.5079 42.7125 43.4728 42.655ZM35.5331 12.6323L35.5424 12.1523L39.3614 12.2256L39.3521 12.7056L35.5331 12.6323ZM36.6605 11.5701C36.8914 11.5755 37.1206 11.5305 37.3323 11.4383C37.5441 11.3461 37.7332 11.2089 37.8866 11.0363L37.9092 11.0109L37.5602 10.6817L37.5357 10.709C37.4322 10.8278 37.3047 10.9232 37.1616 10.9891C37.0185 11.055 36.8631 11.0899 36.7056 11.0914C36.5481 11.0929 36.392 11.061 36.2477 10.9979C36.1034 10.9348 35.9741 10.8418 35.8683 10.7251L35.8522 10.7138L35.4571 10.7062L34.4347 12.3812L34.845 12.6312L35.7013 11.224C35.9757 11.4418 36.314 11.5634 36.6643 11.5701H36.6605ZM38.7468 11.8729L37.4594 9.56406L36.7888 10.6656L36.3785 10.4157L37.2736 8.94442L37.6688 8.95197L37.6791 8.96989L39.1674 11.6408L38.7468 11.8729ZM16.0483 13.0876C16.1229 12.8608 16.1349 12.6181 16.0832 12.385C16.0115 12.0077 15.8342 11.7402 15.5513 11.5824C15.2683 11.4246 14.904 11.3868 14.4582 11.4692L12.9746 11.7522L13.6235 15.1474L14.395 15.0022L14.2063 14.0308L14.9212 13.9016L14.9948 13.8874L15.722 14.756L16.5944 14.591L15.6512 13.6064C15.8336 13.4803 15.9718 13.3002 16.0464 13.0914L16.0483 13.0876ZM14.7967 13.2602C14.976 13.239 15.1414 13.1533 15.2623 13.0193C15.3115 12.9538 15.3454 12.8781 15.3615 12.7977C15.3778 12.716 15.3753 12.6316 15.3541 12.551C15.3447 12.4706 15.3168 12.3934 15.2726 12.3255C15.2284 12.2576 15.1692 12.2008 15.0995 12.1596C14.9368 12.0815 14.7516 12.0638 14.577 12.1096L13.8649 12.2445L14.0847 13.3951L14.7967 13.2602ZM65.5394 14.0279L65.3564 14.6523L63.5701 14.127L63.3579 14.8513L64.9631 15.3229L64.7792 15.9472L63.174 15.4757L62.9571 16.2141L64.7962 16.7545L64.6123 17.3789L62.0215 16.6168L63.0005 13.2819L65.5394 14.0279ZM61.4527 12.8811L60.9095 15.0588L59.8145 12.4727L59.1204 12.2992L58.28 15.6728L59.0081 15.8538L59.5485 13.6856L60.6416 16.2603L61.3349 16.4329L62.1752 13.0612L61.4527 12.8811ZM18.8004 12.8632L19.5266 10.5874L20.3848 10.4516L20.9271 13.8846L20.2311 13.9949L19.8642 11.6748L19.1993 13.8006L18.6994 13.8799L17.4073 12.0634L17.7733 14.3826L17.0772 14.4929L16.534 11.0599L17.3979 10.9231L18.8004 12.8632ZM6.45184 16.0783C6.32912 16.1874 6.1839 16.2682 6.02648 16.315C5.84549 16.3686 5.65319 16.3708 5.47098 16.3216C5.29194 16.2722 5.12922 16.1762 4.99941 16.0434C4.86421 15.9057 4.76676 15.7355 4.71647 15.5492C4.66191 15.3652 4.65606 15.1702 4.69949 14.9833C4.74209 14.801 4.83295 14.6336 4.96255 14.4985C5.09215 14.3634 5.25571 14.2657 5.43608 14.2156C5.59918 14.1712 5.77046 14.166 5.93594 14.2005C6.11329 14.2346 6.28159 14.3053 6.43015 14.408L6.71309 13.7478C6.26395 13.4951 5.73337 13.4294 5.23614 13.5648C4.91904 13.6502 4.62929 13.8159 4.39486 14.0458C4.16875 14.266 4.00714 14.5438 3.92752 14.8492C3.84789 15.1545 3.85328 15.4759 3.9431 15.7784C4.02664 16.0894 4.19247 16.3722 4.42315 16.597C4.64732 16.8156 4.92671 16.9692 5.23142 17.0412C5.54742 17.1159 5.87748 17.1065 6.1887 17.0139C6.43806 16.9409 6.66894 16.8155 6.86588 16.6461C7.07151 16.4737 7.24243 16.2637 7.36951 16.0274L6.7876 15.6718C6.70229 15.8259 6.59018 15.9636 6.45655 16.0783H6.45184ZM10.8865 14.2996L11.0534 15.0503L12.9246 14.6325L13.0661 15.2672L10.43 15.8567L9.67175 12.4652L12.2541 11.887L12.3965 12.5217L10.5791 12.9282L10.7441 13.6648L12.3767 13.2998L12.5191 13.9346L10.8865 14.2996ZM8.49661 15.6294L7.82038 12.9216L7.05927 13.1121L7.90054 16.4848L10.1075 15.934L9.94149 15.2691L8.49661 15.6294ZM50.7237 14.2024L48.0518 13.8091L48.5573 10.3695L51.1764 10.7552L51.0811 11.3994L49.2392 11.1278L49.1288 11.8747L50.785 12.1181L50.6897 12.7613L49.0345 12.518L48.9223 13.2791L50.8189 13.5582L50.7237 14.2024ZM47.3557 10.2205L46.107 12.7141L45.4666 10.0007L44.6282 9.90359L45.5845 13.513L46.3881 13.6073L48.1602 10.3129L47.3557 10.2205ZM43.0493 12.4171C43.2047 12.2665 43.2948 12.0609 43.3002 11.8446L43.47 9.81024L44.2518 9.87437L44.0849 11.9078C44.0694 12.1835 43.983 12.4505 43.834 12.683C43.694 12.8937 43.4944 13.0579 43.2606 13.1546C42.9965 13.2588 42.7111 13.2976 42.4287 13.2678C42.1436 13.251 41.8668 13.1659 41.6214 13.0197C41.4041 12.8872 41.2313 12.6928 41.1253 12.4614C41.015 12.2082 40.9724 11.9306 41.0018 11.656L41.1687 9.62161L41.9515 9.68668L41.777 11.7201C41.7622 11.8264 41.7689 11.9347 41.7968 12.0384C41.8247 12.1421 41.8731 12.2391 41.9393 12.3237C42.0071 12.4024 42.0904 12.4662 42.1841 12.5111C42.2777 12.5561 42.3796 12.5812 42.4834 12.5849C42.5843 12.5984 42.6868 12.5904 42.7843 12.5614C42.8818 12.5325 42.9721 12.4833 43.0493 12.4171ZM24.5629 10.7817C24.3718 10.5288 24.1151 10.3331 23.8206 10.2158C23.5119 10.0972 23.1791 10.0552 22.8506 10.0933C22.5221 10.1314 22.2077 10.2485 21.9344 10.4346C21.674 10.6186 21.4681 10.8695 21.3383 11.1607C21.2084 11.4519 21.1595 11.7727 21.1965 12.0893C21.2336 12.406 21.3553 12.7068 21.5489 12.9602C21.7425 13.2135 22.0007 13.41 22.2965 13.529C22.6048 13.65 22.9381 13.6933 23.267 13.6552C23.5959 13.617 23.9104 13.4985 24.1828 13.3102C24.4442 13.1268 24.6506 12.8756 24.7797 12.5836C24.9089 12.2916 24.9558 11.9699 24.9156 11.6531C24.8824 11.3343 24.7613 11.0309 24.5657 10.7769L24.5629 10.7817ZM24.0404 12.3227C23.9706 12.4973 23.8557 12.6503 23.7075 12.766C23.5606 12.881 23.3845 12.9525 23.1991 12.9726C23.0123 12.9952 22.8228 12.9652 22.6521 12.8858C22.4791 12.8069 22.3292 12.6851 22.2164 12.5321C22.1017 12.3736 22.0294 12.1885 22.0063 11.9942C21.9832 11.8 22.0101 11.603 22.0843 11.422C22.1581 11.2469 22.2769 11.0943 22.4286 10.9797C22.5783 10.8648 22.7568 10.7934 22.9445 10.7732C23.1292 10.7498 23.3168 10.7789 23.4858 10.8571C23.6564 10.9353 23.8034 11.0569 23.9121 11.2098C24.0254 11.3681 24.0958 11.553 24.1168 11.7465C24.1414 11.9419 24.1151 12.1404 24.0404 12.3227ZM56.8041 14.6551C56.9292 14.6457 57.0531 14.6236 57.1738 14.5891L57.3633 13.6809L58.0292 13.8214L57.7463 15.1418C57.5182 15.2422 57.2756 15.3059 57.0276 15.3304C56.7761 15.3603 56.5214 15.3501 56.2731 15.3002C55.9496 15.2363 55.6484 15.0894 55.3988 14.8739C55.1576 14.666 54.9776 14.3965 54.8779 14.0941C54.7782 13.7917 54.7627 13.468 54.8329 13.1574C54.8958 12.8425 55.0454 12.5515 55.2649 12.3171C55.4827 12.0852 55.7595 11.917 56.0656 11.8304C56.389 11.7378 56.7305 11.728 57.0587 11.8021C57.3116 11.8562 57.5528 11.9552 57.7708 12.0945C57.9819 12.2271 58.1669 12.3971 58.3169 12.5963L57.7679 13.0537C57.6668 12.9055 57.5389 12.7776 57.3907 12.6764C57.2486 12.5773 57.0883 12.5071 56.9191 12.4699C56.732 12.4288 56.5374 12.4382 56.3551 12.497C56.1729 12.5559 56.0095 12.662 55.8817 12.8047C55.7533 12.9533 55.6648 13.1321 55.6246 13.3243C55.5843 13.5165 55.5936 13.7158 55.6515 13.9034C55.71 14.0874 55.8165 14.2524 55.9601 14.3814C56.1037 14.5104 56.2791 14.5987 56.4683 14.6372C56.5789 14.6584 56.6918 14.6644 56.8041 14.6551ZM27.6988 9.68572L27.8828 11.9219L26.0154 9.82436L25.3033 9.88378L25.5891 13.347L26.336 13.2857L26.153 11.0589L28.0139 13.147L28.7269 13.0886L28.4411 9.62442L27.6988 9.68572ZM51.8875 10.8712L53.3738 11.1325L53.3748 11.1315C53.8218 11.2108 54.1453 11.3749 54.3575 11.6248C54.5697 11.8747 54.6367 12.1907 54.5697 12.5679C54.5352 12.8056 54.4374 13.0297 54.2868 13.2168C54.1432 13.386 53.9503 13.5061 53.7351 13.5601L54.2651 14.8183L53.3899 14.6645L53.0192 13.5903L52.9457 13.578L52.2317 13.4526L52.061 14.4306L51.2886 14.2948L51.8875 10.8712ZM53.756 12.6951C53.7992 12.6247 53.8262 12.5455 53.835 12.4633H53.8313C53.8513 12.3847 53.8531 12.3026 53.8368 12.2232C53.8205 12.1438 53.7863 12.0692 53.737 12.0049C53.6118 11.8749 53.4448 11.7931 53.2654 11.7738L52.5514 11.6484L52.3477 12.8066L53.0617 12.932C53.2378 12.9757 53.4238 12.9539 53.5851 12.8707C53.6544 12.8256 53.7127 12.7656 53.756 12.6951ZM31.7855 9.46691L28.8834 9.59895L28.9145 10.2639L29.9699 10.2158L30.0982 13.0235L30.8819 12.9876L30.7546 10.1809L31.8156 10.1318L31.7855 9.46691ZM33.0002 70.4133C31.9024 70.4133 31.0753 71.298 31.0753 72.4694C31.0753 73.5304 31.7892 74.3019 32.7729 74.3019C32.912 74.3045 33.0509 74.2889 33.186 74.2557L33.0917 74.4377L33.0577 74.5018C32.7342 75.0677 32.5956 75.2563 32.0938 75.8996L31.7656 76.3164L31.5949 76.5201L32.7965 76.7305L32.9342 76.5673C33.3812 76.0212 33.8283 75.4638 34.0839 75.0894C34.3349 74.733 34.5414 74.3472 34.6988 73.9407C34.8607 73.5006 34.953 73.0379 34.9723 72.5693C34.9723 71.3433 34.1235 70.4133 33.0002 70.4133ZM33.7971 72.5448C33.8015 72.7627 33.7644 72.9794 33.6877 73.1833C33.4935 73.3167 33.2631 73.3874 33.0275 73.3861C32.522 73.3861 32.1787 73.0004 32.1787 72.4279C32.1787 71.8554 32.5135 71.4329 32.9757 71.4329C33.4746 71.4329 33.7971 71.8677 33.7971 72.5411V72.5448ZM29.007 70.5039H30.1981V76.6399H29.007V70.5039ZM37.0482 70.5039H35.857V76.6399H37.0482V70.5039ZM38.8033 70.5039H39.9945V76.6399H38.8033V70.5039Z" clip-rule="evenodd" fill-rule="evenodd"></path>
</svg>
