<svg xmlns="http://www.w3.org/2000/svg" fill="none" viewBox="0 0 630 630" height="630" width="630">
<path fill="black" d="M29.6445 0H600.278C616.651 0 629.923 13.2722 629.923 29.6445V600.278C629.923 616.651 616.651 629.923 600.278 629.923H29.6445C13.2723 629.923 0 616.651 0 600.278V29.6445C0 13.2722 13.2723 0 29.6445 0ZM296.165 178.479C296.165 196.384 281.649 210.901 263.743 210.901C245.832 210.901 231.321 196.384 231.321 178.479C231.321 160.573 245.832 146.057 263.743 146.057C281.649 146.057 296.165 160.573 296.165 178.479ZM323.004 417.262C326.188 420.595 330.354 422.262 335.51 422.262C338.237 422.262 340.51 424.534 340.51 427.262V439.612C340.51 442.339 338.232 444.612 335.504 444.612C334.826 444.639 334.149 444.651 333.465 444.651C320.882 444.651 311.226 441.167 304.482 434.195C297.732 427.228 294.365 416.617 294.365 402.373V289.562C294.365 286.839 296.637 284.562 299.365 284.562H313.232C315.96 284.562 318.237 286.839 318.237 289.562V401.917C318.237 408.812 319.826 413.928 323.004 417.262ZM434.989 412.371C428.889 418.965 420.989 422.26 411.289 422.26C401.367 422.26 393.411 418.91 387.422 412.204C381.433 405.498 378.444 397.215 378.444 387.365C378.444 377.521 381.433 369.237 387.422 362.532C393.411 355.826 401.367 352.471 411.289 352.471C420.989 352.471 428.889 355.771 434.989 362.36C441.094 368.954 444.139 377.293 444.139 387.365C444.139 397.443 441.094 405.776 434.989 412.371ZM461.417 332.921H447.661C444.933 332.921 442.661 335.421 442.661 337.926V346.104C434.25 335.421 422.844 330.076 408.45 330.076C393.067 330.076 380.15 335.498 369.694 346.332C359.233 357.171 354.005 370.843 354.005 387.365C354.005 403.887 359.233 417.565 369.694 428.398C380.15 439.237 393.067 444.654 408.45 444.654C422.922 444.654 434.328 439.348 442.661 428.737V436.81C442.661 439.31 444.933 441.81 447.661 441.81H461.417C464.144 441.81 466.417 439.31 466.417 436.81V337.926C466.417 335.421 464.144 332.921 461.417 332.921ZM125.945 349.518C133.829 336.557 147.09 330.079 165.723 330.079C178.684 330.079 189.29 334.118 197.551 342.19C205.812 350.257 209.94 360.657 209.94 373.385V436.807C209.94 439.535 207.667 441.807 204.945 441.807H191.067C188.345 441.807 186.073 439.535 186.073 436.807V381.229C186.073 372.135 183.856 365.107 179.423 360.146C174.99 355.185 168.756 352.696 160.729 352.696C152.69 352.696 145.984 355.257 140.606 360.374C135.229 365.485 132.534 372.518 132.534 381.457V436.807C132.534 439.535 130.262 441.807 127.534 441.807H113.667C110.945 441.807 108.667 439.535 108.667 436.807V381.229C108.667 372.135 106.451 365.107 102.017 360.146C97.5841 355.185 91.3507 352.696 83.3229 352.696C75.2896 352.696 68.584 355.257 63.2063 360.374C57.8229 365.485 55.134 372.518 55.134 381.457V436.807C55.134 439.535 52.8618 441.807 50.1285 441.807H36.2618C33.5396 441.807 31.2673 439.535 31.2673 436.807V337.924C31.2673 335.196 33.5396 332.924 36.2618 332.924H49.9062C52.634 332.924 54.9062 335.196 54.9062 337.924V346.218C62.334 335.462 73.4729 330.079 88.3229 330.079C96.5841 330.079 103.951 331.79 110.429 335.196C116.912 338.607 122.084 343.385 125.945 349.518ZM521.028 346.218C528.45 335.462 539.589 330.079 554.444 330.079C567.4 330.079 578.005 334.118 586.272 342.19C594.528 350.257 598.656 360.657 598.656 373.385V436.813C598.656 439.307 596.383 441.807 593.661 441.807H579.9C577.178 441.807 574.905 439.307 574.905 436.813L574.789 381.229C574.789 372.135 572.572 365.107 568.139 360.146C563.705 355.185 557.472 352.696 549.444 352.696C541.405 352.696 534.7 355.257 529.328 360.374C523.944 365.485 521.25 372.518 521.25 381.457L521.083 436.813C521.083 439.307 518.811 441.807 516.083 441.807H502.328C499.6 441.807 497.328 439.307 497.328 436.813L497.383 337.924C497.383 335.196 499.661 332.924 502.389 332.924H516.028C518.755 332.924 521.028 335.196 521.028 337.924V346.218ZM258.519 332.922H244.652C241.924 332.922 239.652 335.194 239.652 337.922V436.805C239.652 439.533 241.924 441.811 244.652 441.811H258.519C261.241 441.811 263.513 439.533 263.513 436.805V337.922C263.513 335.194 261.241 332.922 258.519 332.922Z" clip-rule="evenodd" fill-rule="evenodd"></path>
</svg>
