<svg xmlns="http://www.w3.org/2000/svg" fill="none" viewBox="0 0 101 79" height="79" width="101">
<path fill="black" d="M3.62842 54.2595V54.1826C3.62842 47.2533 9.00817 41.5629 16.4475 41.5629C23.8868 41.5629 29.1908 47.1764 29.1908 54.1058V54.1826C29.1908 61.112 23.811 66.8024 16.3717 66.8024C8.93244 66.8024 3.62842 61.1888 3.62842 54.2595ZM23.6595 54.2595V54.1826C23.6595 50.0021 20.6448 46.5173 16.3717 46.5173C12.0987 46.5173 9.16096 49.9239 9.16096 54.1045V54.1814C9.16096 58.3619 12.1757 61.8467 16.4487 61.8467C20.7217 61.8467 23.6595 58.44 23.6595 54.2595Z"></path>
<path fill="black" d="M33.8884 41.9878H39.1911V52.6339L48.9583 41.9878H55.331L45.5249 52.3238L55.7506 66.3766H49.3781L41.9761 56.0015L39.1911 58.9431V66.4144H33.8884V41.9878Z"></path>
<path fill="black" d="M58.9541 41.9878H68.7591C74.4819 41.9878 77.9535 45.4336 77.9535 50.427V50.5039C77.9535 56.1565 73.6418 59.0591 68.2238 59.0591H64.2179V66.3753H58.9155V41.9878H58.9541ZM68.4533 54.2987C71.0857 54.2987 72.6511 52.712 72.6511 50.6212V50.5442C72.6511 48.1445 71.0104 46.8666 68.3781 46.8666H64.295V54.3379L68.4533 54.2987Z"></path>
<path fill="black" d="M92.6805 61.1107H80.93L80.0898 57.3171L93.292 41.7935H97.7561V56.736H101V61.1107H97.7561V66.3751H92.721V61.1107H92.6824H92.6805ZM92.6805 56.7751V49.1878L86.3085 56.7751H92.6805Z"></path>
<path fill="black" d="M12.8263 61.6527L4.20327 70.3629L0.464355 66.5692L28.6216 38L32.3605 41.7936L20.0371 54.2974L12.8263 61.6527Z"></path>
<path fill="black" d="M4.58502 78.2601C4.39376 78.1442 4.24219 77.9892 4.12666 77.7951C4.01113 77.601 3.97388 77.3691 3.97388 77.1372V76.0533C3.97388 75.8214 4.01235 75.5883 4.12666 75.3954C4.24097 75.2013 4.39376 75.0476 4.58502 74.9304C4.77628 74.8144 5.00489 74.7753 5.27189 74.7753C5.53898 74.7753 5.76751 74.8144 5.95886 74.9304C6.15013 75.0463 6.30169 75.2013 6.41722 75.3954C6.53143 75.5895 6.57001 75.8214 6.57001 76.0533V77.1372C6.57001 77.4081 6.53143 77.6022 6.41722 77.7951C6.30291 77.9892 6.15013 78.1429 5.95886 78.2601C5.76751 78.3761 5.53898 78.4152 5.27189 78.4152C5.00489 78.4152 4.77628 78.3761 4.58502 78.2601ZM5.72903 77.6414C5.84333 77.5254 5.88181 77.3703 5.88181 77.1762V76.0533C5.88181 75.8592 5.84333 75.7055 5.72903 75.5883C5.61472 75.4723 5.46194 75.3942 5.27067 75.3942C5.07941 75.3942 4.92785 75.471 4.85079 75.5883C4.77384 75.7055 4.69801 75.8592 4.69801 76.0533V77.1762C4.69801 77.3703 4.73658 77.5241 4.85079 77.6414C4.9651 77.7573 5.11789 77.8355 5.27067 77.8355C5.42346 77.8355 5.6135 77.7585 5.72903 77.6414Z"></path>
<path fill="black" d="M9.92727 74.9707C10.0801 75.0475 10.2328 75.2026 10.3086 75.3576C10.3844 75.5127 10.4614 75.7054 10.4614 75.9386C10.4614 76.1718 10.4229 76.3255 10.3086 76.4805C10.1944 76.6356 10.0801 76.7515 9.92727 76.8675C9.77449 76.9834 9.54597 76.9834 9.35461 76.9834H8.62926C8.62926 76.9834 8.59069 76.9834 8.59069 77.0225V78.3383L8.55221 78.3774H7.97955C7.97955 78.3774 7.94107 78.3774 7.94107 78.3383L7.90259 78.2992V74.8926C7.90259 74.8926 7.90259 74.8534 7.94107 74.8534C7.97955 74.8534 7.97955 74.8144 7.97955 74.8144H9.39064C9.582 74.8534 9.77205 74.8913 9.92483 74.9694L9.92727 74.9707ZM9.62171 76.2865C9.69744 76.2096 9.77449 76.0924 9.77449 75.9386C9.77449 75.7848 9.73601 75.6676 9.62171 75.5907C9.54597 75.5139 9.39319 75.4748 9.2404 75.4748H8.63048C8.63048 75.4748 8.592 75.4748 8.592 75.5139V76.4427C8.592 76.4427 8.592 76.4819 8.63048 76.4819H9.2404C9.39319 76.4427 9.5074 76.4049 9.62171 76.2878V76.2865Z"></path>
<path fill="black" d="M14.0876 75.4346H12.4095C12.4095 75.4346 12.371 75.4346 12.371 75.4736V76.2474C12.371 76.2474 12.371 76.2866 12.4095 76.2866H13.5163V76.8675L13.4777 76.9066H12.4095C12.4095 76.9066 12.371 76.9066 12.371 76.9457V77.7586C12.371 77.7586 12.371 77.7977 12.4095 77.7977H14.0504C14.0504 77.7977 14.0889 77.7977 14.0889 77.8367C14.0889 77.8758 14.1274 77.8758 14.1274 77.8758V78.3787C14.1274 78.3787 14.1274 78.4177 14.0889 78.4177C14.0504 78.4177 14.0504 78.4568 14.0504 78.4568H11.7611C11.7611 78.4568 11.7226 78.4568 11.7226 78.4177L11.6841 78.3787V74.972C11.6841 74.972 11.6841 74.9329 11.7226 74.9329H14.0876L14.1262 74.972V75.4748C14.0876 75.398 14.0876 75.4358 14.0876 75.4358V75.4346Z"></path>
<path fill="black" d="M17.3676 74.8535H18.016V78.3371L17.9774 78.3761H17.4049C17.3792 78.3761 17.3539 78.3631 17.329 78.3371L16.0322 76.1693H15.9938V78.3371C15.9938 78.3371 15.9938 78.3761 15.9553 78.3761C15.9167 78.3761 15.9167 78.4153 15.9167 78.4153H15.3441C15.3441 78.4153 15.3056 78.4153 15.3056 78.3761L15.2671 78.3371V74.9304C15.2671 74.9304 15.2671 74.8913 15.3056 74.8913H15.9155C15.9412 74.8913 15.9664 74.9044 15.9912 74.9304L17.2881 77.0591H17.3266V74.8913C17.3651 74.9304 17.3651 74.8913 17.3651 74.8523L17.3676 74.8535Z"></path>
<path fill="black" d="M21.2995 78.3384L21.261 78.2994V74.8927C21.261 74.8927 21.261 74.8536 21.2995 74.8536H21.9479L21.9864 74.8927V76.2865H22.0249L23.1689 74.8548C23.1946 74.8288 23.2198 74.8158 23.2447 74.8158H23.8931C23.9187 74.8158 23.9316 74.8288 23.9316 74.8548V74.8939L22.8249 76.3257V76.3647L24.0074 78.2616V78.3006C24.0074 78.3267 23.9946 78.3396 23.9689 78.3396H23.282C23.2563 78.3396 23.231 78.3267 23.2062 78.3006L22.3293 76.8689H22.2907L21.9851 77.2558V78.3006C21.9851 78.3006 21.9851 78.3396 21.9466 78.3396C21.9082 78.3396 21.9082 78.3788 21.9082 78.3788H21.3355C21.3355 78.3788 21.297 78.3788 21.297 78.3396L21.2995 78.3384Z"></path>
<path fill="black" d="M27.1724 74.8535H27.8209V78.3371L27.7824 78.3761H27.2098C27.1841 78.3761 27.1588 78.3631 27.134 78.3371L25.8372 76.1693H25.7987V78.3371C25.7987 78.3371 25.7987 78.3761 25.7601 78.3761C25.7216 78.3761 25.7216 78.4153 25.7216 78.4153H25.149C25.149 78.4153 25.1105 78.4153 25.1105 78.3761L25.072 78.3371V74.9304C25.072 74.9304 25.072 74.8913 25.1105 74.8913H25.7204C25.7461 74.8913 25.7713 74.9044 25.7962 74.9304L27.0929 77.0591H27.1315V74.8913C27.17 74.9304 27.17 74.8913 27.17 74.8523L27.1724 74.8535Z"></path>
<path fill="black" d="M29.8028 78.2601C29.6114 78.1442 29.46 77.9892 29.3444 77.7951C29.2301 77.601 29.1917 77.3691 29.1917 77.1372V76.0533C29.1917 75.8214 29.2301 75.5883 29.3444 75.3954C29.4586 75.2025 29.6114 75.0476 29.8028 74.9304C29.9941 74.8144 30.2226 74.7753 30.4897 74.7753C30.7568 74.7753 30.9853 74.8144 31.1766 74.9304C31.3679 75.0463 31.5195 75.2013 31.635 75.3954C31.7492 75.5895 31.7878 75.8214 31.7878 76.0533V77.1372C31.7878 77.4081 31.7492 77.6022 31.635 77.7951C31.5207 77.9892 31.3679 78.1429 31.1766 78.2601C30.9853 78.3761 30.7568 78.4152 30.4897 78.4152C30.2226 78.4152 29.9941 78.3761 29.8028 78.2601ZM30.9468 77.6414C31.0611 77.5254 31.0996 77.3703 31.0996 77.1762V76.0533C31.0996 75.8592 31.0611 75.7055 30.9468 75.5883C30.8325 75.4723 30.6797 75.3942 30.4884 75.3942C30.2972 75.3942 30.1456 75.471 30.0686 75.5883C29.9916 75.7055 29.9158 75.8592 29.9158 76.0533V77.1762C29.9158 77.3703 29.9544 77.5241 30.0686 77.6414C30.1829 77.7573 30.3357 77.8355 30.4884 77.8355C30.6412 77.8355 30.8313 77.7585 30.9468 77.6414Z"></path>
<path fill="black" d="M33.7729 78.3382L32.896 74.9316V74.8925C32.896 74.8665 32.9088 74.8534 32.9345 74.8534H33.5444C33.5701 74.8534 33.5953 74.8665 33.6201 74.8925L34.0785 76.9443L34.5368 74.8925C34.5368 74.8534 34.5754 74.8534 34.6127 74.8534H35.2225C35.2611 74.8534 35.2983 74.8534 35.2983 74.8925L35.7939 76.9443L36.2523 74.8925C36.2523 74.8534 36.2908 74.8534 36.328 74.8534H36.9007C36.9392 74.8534 36.9764 74.8925 36.9392 74.9303L36.138 78.337C36.138 78.376 36.0995 78.376 36.0622 78.376H35.4523C35.4266 78.376 35.4014 78.3631 35.3766 78.337L34.881 76.1692L34.4226 78.337C34.4226 78.376 34.3841 78.376 34.3468 78.376H33.8127L33.7741 78.337L33.7729 78.3382Z"></path>
<path fill="black" d="M38.2338 78.3385L38.1953 78.2994V74.8928C38.1953 74.8928 38.1953 74.8537 38.2338 74.8537H38.8822L38.9208 74.8928V77.7184C38.9208 77.7184 38.9208 77.7575 38.9592 77.7575H40.5616C40.5616 77.7575 40.6001 77.7575 40.6001 77.7965V78.3776L40.5616 78.4166H38.2723C38.2723 78.3776 38.2338 78.3776 38.2338 78.3397V78.3385Z"></path>
<path fill="black" d="M44.2261 75.4346H42.5479C42.5479 75.4346 42.5094 75.4346 42.5094 75.4736V76.2474C42.5094 76.2474 42.5094 76.2866 42.5479 76.2866H43.6546V76.8675L43.6161 76.9066H42.5479C42.5479 76.9066 42.5094 76.9066 42.5094 76.9457V77.7586C42.5094 77.7586 42.5094 77.7977 42.5479 77.7977H44.1888C44.1888 77.7977 44.2273 77.7977 44.2273 77.8367C44.2273 77.8758 44.2658 77.8758 44.2658 77.8758V78.3787C44.2658 78.3787 44.2658 78.4177 44.2273 78.4177C44.1888 78.4177 44.1888 78.4568 44.1888 78.4568H41.8995C41.8995 78.4568 41.861 78.4568 41.861 78.4177L41.8225 78.3787V74.972C41.8225 74.972 41.8225 74.9329 41.861 74.9329H44.2261L44.2645 74.972V75.4748C44.2645 75.398 44.2645 75.4358 44.2261 75.4358V75.4346Z"></path>
<path fill="black" d="M45.562 78.3382L45.5234 78.2992V74.8925C45.5234 74.8925 45.5234 74.8534 45.562 74.8534H46.8216C47.0501 74.8534 47.2799 74.8925 47.4699 74.9694C47.6612 75.0463 47.8128 75.2012 47.8898 75.3563C47.9668 75.5113 48.0426 75.7042 48.0426 75.8983V77.2922C48.0426 77.5241 48.004 77.6791 47.8898 77.8341C47.7755 77.9891 47.6612 78.1051 47.4699 78.221C47.2787 78.337 47.0501 78.337 46.8216 78.337H45.6005C45.6005 78.376 45.562 78.376 45.562 78.337V78.3382ZM46.2489 77.7573H46.8588C47.0116 77.7573 47.1259 77.7181 47.2401 77.6022C47.3544 77.4862 47.3929 77.3703 47.3929 77.1763V76.0155C47.3929 75.8605 47.3544 75.7054 47.2401 75.5895C47.1259 75.4735 47.0116 75.4345 46.8588 75.4345H46.2489C46.2489 75.4345 46.2104 75.4345 46.2104 75.4735L46.2489 77.7573Z"></path>
<path fill="black" d="M49.949 78.2602C49.7578 78.1442 49.6062 78.0282 49.4907 77.8342C49.3751 77.6401 49.3379 77.4472 49.3379 77.1763V76.0533C49.3379 75.8214 49.3765 75.5882 49.4907 75.3954C49.605 75.2026 49.7578 75.0475 49.949 74.9694C50.1404 74.8534 50.3689 74.8144 50.636 74.8144C50.9031 74.8144 51.0944 74.8534 51.3229 74.9694C51.5515 75.0853 51.6657 75.2013 51.7812 75.3954C51.8955 75.5895 51.934 75.7432 51.934 75.9765V76.0533L51.8955 76.0924H51.3229C51.3229 76.0924 51.2844 76.0924 51.2844 76.0533C51.2844 76.0142 51.2459 76.0142 51.2459 76.0142C51.2459 75.8592 51.2073 75.7432 51.0931 75.6273C50.9788 75.5113 50.8645 75.4723 50.6733 75.4723C50.482 75.4723 50.3677 75.5492 50.2534 75.6273C50.1391 75.7042 50.1006 75.8983 50.1006 76.0533V77.2141C50.1006 77.4082 50.1391 77.5241 50.2919 77.6401C50.4062 77.756 50.5589 77.7951 50.7502 77.7951C50.9416 77.7951 51.0558 77.756 51.1701 77.6401C51.2844 77.5241 51.3229 77.4082 51.3229 77.2531V77.0212C51.3229 77.0212 51.3229 76.9822 51.2844 76.9822H50.7117C50.7117 76.9822 50.6733 76.9822 50.6733 76.9431V76.4011H51.97V77.0981C51.97 77.3691 51.9316 77.5632 51.8173 77.756C51.703 77.9501 51.5502 78.1039 51.3589 78.182C51.1676 78.298 50.939 78.337 50.672 78.337C50.4049 78.337 50.1379 78.3761 49.9466 78.2602H49.949Z"></path>
<path fill="black" d="M55.6359 75.4344H53.9575C53.9575 75.4344 53.919 75.4344 53.919 75.4735V76.2473C53.919 76.2473 53.919 76.2864 53.9575 76.2864H55.0639V76.8674L55.0253 76.9065H53.9575C53.9575 76.9065 53.919 76.9065 53.919 76.9456V77.7585C53.919 77.7585 53.919 77.7975 53.9575 77.7975H55.5983C55.5983 77.7975 55.6369 77.7975 55.6369 77.8366V78.4176L55.5983 78.4567H53.3093C53.3093 78.4567 53.2708 78.4567 53.2708 78.4176V74.9341H55.6359V75.476C55.6359 75.3991 55.6359 75.4369 55.6359 75.4369V75.4344Z"></path>
<path fill="black" d="M60.747 74.9705C60.9004 75.0474 61.0528 75.2025 61.129 75.3575C61.2043 75.5125 61.2814 75.7053 61.2814 75.9385C61.2814 76.1717 61.2428 76.3254 61.129 76.4804C61.0142 76.6355 60.9004 76.7514 60.747 76.8674C60.5946 76.9833 60.366 76.9833 60.175 76.9833H59.4497C59.4497 76.9833 59.4111 76.9833 59.4111 77.0223V78.3381L59.3725 78.3773H58.762C58.762 78.3773 58.7234 78.3773 58.7234 78.3381V74.8546L58.762 74.8155H60.1732C60.3651 74.8546 60.5561 74.8924 60.747 74.9705ZM60.4046 76.2863C60.4799 76.2095 60.557 76.0923 60.557 75.9385C60.557 75.7847 60.5184 75.6675 60.4046 75.5906C60.3284 75.5138 60.176 75.4747 60.0236 75.4747H59.413C59.413 75.4747 59.3744 75.4747 59.3744 75.5138V76.4426C59.3744 76.4426 59.3744 76.4817 59.413 76.4817H60.0236C60.2146 76.4426 60.3284 76.4048 60.4046 76.2876V76.2863Z"></path>
<path fill="black" d="M64.3334 78.3382L63.7237 76.9444C63.7237 76.9444 63.7237 76.9052 63.6852 76.9052H63.227C63.227 76.9052 63.1884 76.9052 63.1884 76.9444V78.3761L63.1498 78.4151H62.5769C62.5769 78.4151 62.5383 78.4151 62.5383 78.3761V74.8925H63.9881C64.1791 74.8925 64.3691 74.9315 64.561 75.0085C64.7135 75.0853 64.8659 75.2404 64.9421 75.3953C65.0183 75.5504 65.0559 75.7432 65.0559 75.9373C65.0559 76.1692 65.0183 76.3633 64.9035 76.5184C64.7897 76.6733 64.6363 76.7893 64.4453 76.8662C64.4453 76.8662 64.4068 76.9052 64.4453 76.9052L65.1321 78.337V78.3761C65.1321 78.4021 65.1189 78.4151 65.0935 78.4151H64.4839C64.3305 78.3761 64.3306 78.3382 64.3306 78.3382H64.3334ZM63.1894 75.4735V76.3255C63.1894 76.3255 63.1894 76.3646 63.2279 76.3646H63.8761C64.0295 76.3646 64.1433 76.3255 64.2195 76.2486C64.2948 76.1718 64.3334 76.0546 64.3334 75.9386C64.3334 75.8227 64.2948 75.7066 64.2195 75.6286C64.1433 75.5516 64.0276 75.5126 63.8761 75.5126L63.1894 75.4735Z"></path>
<path fill="black" d="M66.8904 78.2601C66.6994 78.1442 66.5479 77.9892 66.4322 77.7951C66.3165 77.601 66.2798 77.3691 66.2798 77.1372V76.0533C66.2798 75.8214 66.3184 75.5883 66.4322 75.3954C66.547 75.2013 66.6994 75.0476 66.8904 74.9304C67.0823 74.8144 67.3109 74.7753 67.5771 74.7753C67.8443 74.7753 68.0729 74.8144 68.2649 74.9304C68.4558 75.0463 68.6073 75.2013 68.723 75.3954C68.8369 75.5895 68.8754 75.8214 68.8754 76.0533V77.1372C68.8754 77.4081 68.8369 77.6022 68.723 77.7951C68.6083 77.9892 68.4558 78.1429 68.2649 78.2601C68.0729 78.3761 67.8443 78.4152 67.5771 78.4152C67.3109 78.4152 67.0823 78.3761 66.8904 78.2601ZM67.9977 77.6414C68.1115 77.5254 68.1501 77.3703 68.1501 77.1762V76.0533C68.1501 75.8592 68.1115 75.7055 67.9977 75.5883C67.8829 75.471 67.7305 75.3942 67.5395 75.3942C67.3476 75.3942 67.1961 75.471 67.119 75.5883C67.0418 75.7055 66.9666 75.8592 66.9666 76.0533V77.1762C66.9666 77.3703 67.0051 77.5241 67.119 77.6414C67.2338 77.7573 67.3862 77.8355 67.5395 77.8355C67.6919 77.8355 67.882 77.7585 67.9977 77.6414Z"></path>
<path fill="black" d="M72.6152 74.8534V75.4345L72.5766 75.4735H71.6998C71.6998 75.4735 71.6612 75.4735 71.6612 75.5125V78.3774L71.6226 78.4164H71.0497C71.0497 78.4164 71.0111 78.4164 71.0111 78.3774V75.5125C71.0111 75.5125 71.0111 75.4735 70.9725 75.4735H70.0957C70.0957 75.4735 70.0571 75.4735 70.0571 75.4345V74.8534H72.6152Z"></path>
<path fill="black" d="M74.2927 78.2601C74.1007 78.1442 73.9493 77.9892 73.8336 77.7951C73.7197 77.601 73.6812 77.3691 73.6812 77.1372V76.0533C73.6812 75.8214 73.7197 75.5883 73.8336 75.3954C73.9483 75.2013 74.1007 75.0476 74.2927 74.9304C74.4837 74.8144 74.7123 74.7753 74.9795 74.7753C75.2466 74.7753 75.4743 74.8144 75.6662 74.9304C75.8572 75.0463 76.0087 75.2013 76.1244 75.3954C76.2382 75.5895 76.2768 75.8214 76.2768 76.0533V77.1372C76.2768 77.4081 76.2382 77.6022 76.1244 77.7951C76.0106 77.988 75.8572 78.1429 75.6662 78.2601C75.4743 78.3761 75.2466 78.4152 74.9795 78.4152C74.7123 78.4152 74.4837 78.3761 74.2927 78.2601ZM75.399 77.6414C75.5129 77.5254 75.5515 77.3703 75.5515 77.1762V76.0533C75.5515 75.8592 75.5129 75.7055 75.399 75.5883C75.2843 75.471 75.1319 75.3942 74.9409 75.3942C74.749 75.3942 74.5975 75.471 74.5203 75.5883C74.4441 75.7055 74.3679 75.8592 74.3679 76.0533V77.1762C74.3679 77.3703 74.4065 77.5241 74.5203 77.6414C74.6351 77.7573 74.7875 77.8355 74.9409 77.8355C75.0933 77.8355 75.2833 77.7585 75.399 77.6414Z"></path>
<path fill="black" d="M78.1433 78.26C77.9523 78.1441 77.8008 78.0281 77.6851 77.834C77.5694 77.64 77.5327 77.4471 77.5327 77.1761V76.0154C77.5327 75.7835 77.5713 75.5504 77.6851 75.3575C77.7999 75.1646 77.9523 75.0474 78.1433 74.9315C78.3352 74.8156 78.5638 74.7765 78.8301 74.7765C79.0973 74.7765 79.2892 74.8156 79.5178 74.9315C79.7464 75.0474 79.8602 75.1634 79.976 75.3575C80.0898 75.5516 80.1284 75.7444 80.1284 75.9763C80.1284 76.0024 80.103 76.0154 80.0531 76.0154L79.4802 76.0544C79.4416 76.0544 79.4416 76.0154 79.4416 76.0154C79.4416 75.8213 79.403 75.7053 79.2892 75.5894C79.1744 75.4734 79.0606 75.4344 78.8687 75.4344C78.6777 75.4344 78.5638 75.4734 78.4491 75.5894C78.3352 75.7053 78.2966 75.8603 78.2966 76.0154V77.2152C78.2966 77.3702 78.3352 77.5253 78.4491 77.6412C78.5638 77.7572 78.7162 77.7962 78.8687 77.7962C79.022 77.7962 79.1744 77.7572 79.2892 77.6412C79.403 77.5253 79.4416 77.4093 79.4416 77.2152C79.4416 77.1892 79.467 77.1761 79.5178 77.1761L80.0898 77.2152H80.1284V77.2543C80.1284 77.4862 80.0898 77.6803 79.976 77.8731C79.8612 78.066 79.7088 78.1832 79.5178 78.2991C79.3259 78.376 79.0973 78.4541 78.8301 78.4541C78.5638 78.4541 78.3352 78.3773 78.1433 78.26Z"></path>
<path fill="black" d="M81.9582 78.2601C81.7672 78.1442 81.6158 77.9892 81.5 77.7951C81.3853 77.601 81.3467 77.3691 81.3467 77.1372V76.0533C81.3467 75.8214 81.3853 75.5883 81.5 75.3954C81.6139 75.2013 81.7672 75.0476 81.9582 74.9304C82.1492 74.8144 82.3778 74.7753 82.645 74.7753C82.9122 74.7753 83.1408 74.8144 83.3318 74.9304C83.5237 75.0463 83.6751 75.2013 83.7899 75.3954C83.9047 75.5895 83.9433 75.8214 83.9433 76.0533V77.1372C83.9433 77.4081 83.9047 77.6022 83.7899 77.7951C83.6761 77.988 83.5237 78.1429 83.3318 78.2601C83.1408 78.3761 82.9122 78.4152 82.645 78.4152C82.3778 78.4152 82.1868 78.3761 81.9582 78.2601ZM83.1022 77.6414C83.2161 77.5254 83.2546 77.3703 83.2546 77.1762V76.0533C83.2546 75.8592 83.2161 75.7055 83.1022 75.5883C82.9884 75.471 82.835 75.3942 82.644 75.3942C82.4521 75.3942 82.3007 75.471 82.2245 75.5883C82.1473 75.7055 82.0711 75.8592 82.0711 76.0533V77.1762C82.0711 77.3703 82.1097 77.5241 82.2245 77.6414C82.3383 77.7573 82.4907 77.8355 82.644 77.8355C82.7965 77.8355 82.9865 77.7585 83.1022 77.6414Z"></path>
<path fill="black" d="M85.3162 78.3384V74.8548H85.9644V77.7196C85.9644 77.7196 85.9644 77.7586 86.0029 77.7586H87.6051C87.6051 77.7586 87.6437 77.7586 87.6437 77.7977V78.3787L87.6051 78.4178H85.3162C85.3547 78.3787 85.3162 78.3787 85.3162 78.3409V78.3384Z"></path>
<path fill="black" d="M93.1028 75.4346H91.4612C91.4612 75.4346 91.4226 75.4346 91.4226 75.4736V76.2475C91.4226 76.2475 91.4226 76.2866 91.4612 76.2866H92.5685V76.8676L92.5299 76.9066H91.4612C91.4612 76.9066 91.4226 76.9066 91.4226 76.9457V78.3775L91.385 78.4165H90.812C90.812 78.4165 90.7734 78.4165 90.7734 78.3775V74.8939H93.1386V75.4358C93.1386 75.3967 93.1386 75.4358 93.1 75.4358L93.1028 75.4346Z"></path>
<path fill="black" d="M94.8576 78.2601C94.6666 78.1442 94.5152 77.9892 94.3994 77.7951C94.2847 77.601 94.2461 77.3691 94.2461 77.1372V76.0533C94.2461 75.8214 94.2847 75.5883 94.3994 75.3954C94.5133 75.2013 94.6666 75.0476 94.8576 74.9304C95.0486 74.8144 95.2772 74.7753 95.5444 74.7753C95.8116 74.7753 96.0402 74.8144 96.2312 74.9304C96.4231 75.0463 96.5746 75.2013 96.6893 75.3954C96.8041 75.5895 96.8427 75.8214 96.8427 76.0533V77.1372C96.8427 77.4081 96.8041 77.6022 96.6893 77.7951C96.5755 77.988 96.4231 78.1429 96.2312 78.2601C96.0402 78.3761 95.8116 78.4152 95.5444 78.4152C95.2772 78.4152 95.0486 78.3761 94.8576 78.2601ZM95.964 77.6414C96.0788 77.5254 96.1173 77.3703 96.1173 77.1762V76.0533C96.1173 75.8592 96.0788 75.7055 95.964 75.5883C95.8501 75.471 95.6968 75.3942 95.5058 75.3942C95.3148 75.3942 95.1634 75.471 95.0862 75.5883C95.01 75.7042 94.9329 75.8592 94.9329 76.0533V77.1762C94.9329 77.3703 94.9714 77.5241 95.0862 77.6414C95.2001 77.7573 95.3534 77.8355 95.5058 77.8355C95.6592 77.8355 95.8492 77.7585 95.964 77.6414Z"></path>
<path fill="black" d="M100.01 78.3382L99.4007 76.9444C99.4007 76.9444 99.4007 76.9052 99.3622 76.9052H98.904C98.904 76.9052 98.8654 76.9052 98.8654 76.9444V78.3761L98.8268 78.4151H98.2539C98.2539 78.4151 98.2153 78.4151 98.2153 78.3761V74.8925H99.6651C99.8561 74.8925 100.046 74.9315 100.238 75.0085C100.39 75.0853 100.543 75.2404 100.619 75.3953C100.694 75.5504 100.733 75.7432 100.733 75.9373C100.733 76.1692 100.694 76.3633 100.58 76.5184C100.466 76.6733 100.313 76.7893 100.122 76.8662C100.122 76.8662 100.084 76.9052 100.122 76.9052L100.809 78.337V78.3761C100.809 78.4021 100.796 78.4151 100.771 78.4151H100.161C100.046 78.3761 100.008 78.3382 100.008 78.3382H100.01ZM98.8664 75.4735V76.3255C98.8664 76.3255 98.8664 76.3646 98.9049 76.3646H99.5531C99.7056 76.3646 99.8203 76.3255 99.8956 76.2486C99.9718 76.1718 100.01 76.0546 100.01 75.9386C100.01 75.8227 99.9718 75.7066 99.8956 75.6286C99.8203 75.5516 99.7046 75.5126 99.5531 75.5126L98.8664 75.4735Z"></path>
<path fill="black" d="M46.2699 29.2283L32 14.5568L46.4227 0.117126L49.7803 3.56162L47.8723 5.45968L46.4227 3.9498L35.7774 14.5945L46.2699 25.3956L47.6425 24.0408L49.5132 25.9767L46.2699 29.2283Z"></path>
<path fill="black" d="M56.7626 20.2472L54.8919 18.3115L58.4408 14.7497L54.7776 10.9561L56.647 9.0593L62.2182 14.7887L56.7626 20.2472Z"></path>
<path fill="black" d="M56.5324 29.0734L42.301 14.4396L53.1377 3.60077L56.7237 0L70.9551 14.6715L56.5324 29.0721V29.0734ZM46.0784 14.4787L56.5709 25.2797L67.1777 14.6337L56.6852 3.83393L46.0784 14.48V14.4787Z"></path>
</svg>
