<svg xmlns="http://www.w3.org/2000/svg" fill="none" viewBox="0 0 124 49" height="49" width="124">
<path fill="#141212" d="M32.3526 22.464C25.7696 22.464 22.0866 17.882 22.0866 11.618C22.0866 5.383 25.7696 0.800999 32.3526 0.800999C38.8776 0.800999 42.6186 5.383 42.6186 11.618C42.6186 17.882 38.8776 22.464 32.3526 22.464ZM32.3526 18.201C36.1226 18.201 37.2826 15.243 37.2826 11.618C37.2826 8.022 36.1226 5.064 32.3526 5.064C28.5536 5.064 27.4226 8.022 27.4226 11.618C27.4226 15.243 28.5536 18.201 32.3526 18.201Z"></path>
<path fill="#141212" d="M44.3464 22V1.265H49.5664L56.8164 13.59H56.8744V1.265H62.0944V22H56.8744L49.6244 9.675H49.5664V22H44.3464Z"></path>
<path fill="#141212" d="M64.7166 22V1.265H73.9096C79.6806 1.265 83.1606 4.977 83.1606 11.647C83.1606 18.317 79.9706 22 74.1996 22H64.7166ZM69.9366 5.528V17.737H73.2716C76.5196 17.737 77.8246 15.417 77.8246 11.647C77.8246 7.877 76.5196 5.528 73.2716 5.528H69.9366Z"></path>
<path fill="#141212" d="M90.1086 9.211H99.1566V13.474H90.1086V17.737H100.781V22H84.8886V1.265H100.607V5.528H90.1086V9.211Z"></path>
<path fill="#141212" d="M0.939819 48V27.265H10.1328C15.9038 27.265 19.3838 30.977 19.3838 37.647C19.3838 44.317 16.1938 48 10.4228 48H0.939819ZM6.15982 31.528V43.737H9.49482C12.7428 43.737 14.0478 41.417 14.0478 37.647C14.0478 33.877 12.7428 31.528 9.49482 31.528H6.15982Z"></path>
<path fill="#141212" d="M26.3318 35.211H35.3798V39.474H26.3318V43.737H37.0038V48H21.1118V27.265H36.8298V31.528H26.3318V35.211Z"></path>
<path fill="#141212" d="M56.55 34.979C56.173 32.717 55.245 31.064 52.49 31.064C49.039 31.064 47.995 33.732 47.995 37.618C47.995 41.533 49.039 44.201 52.49 44.201C55.274 44.201 56.202 42.548 56.55 40.228H61.886C61.422 44.984 58.29 48.464 52.577 48.464C45.994 48.464 42.659 43.882 42.659 37.705C42.659 31.354 46.168 26.801 52.722 26.801C58.377 26.801 61.393 30.165 61.886 34.979H56.55Z"></path>
<path fill="#141212" d="M63.3329 27.265H68.5529V35.385H75.6579V27.265H80.8779V48H75.6579V39.648H68.5529V48H63.3329V27.265Z"></path>
<path fill="#141212" d="M92.8725 48.464C86.2895 48.464 82.6065 43.882 82.6065 37.618C82.6065 31.383 86.2895 26.801 92.8725 26.801C99.3975 26.801 103.139 31.383 103.139 37.618C103.139 43.882 99.3975 48.464 92.8725 48.464ZM92.8725 44.201C96.6425 44.201 97.8025 41.243 97.8025 37.618C97.8025 34.022 96.6425 31.064 92.8725 31.064C89.0735 31.064 87.9425 34.022 87.9425 37.618C87.9425 41.243 89.0735 44.201 92.8725 44.201Z"></path>
<path fill="#141212" d="M117.887 34.979C117.51 32.717 116.582 31.064 113.827 31.064C110.376 31.064 109.332 33.732 109.332 37.618C109.332 41.533 110.376 44.201 113.827 44.201C116.611 44.201 117.539 42.548 117.887 40.228H123.223C122.759 44.984 119.627 48.464 113.914 48.464C107.331 48.464 103.996 43.882 103.996 37.705C103.996 31.354 107.505 26.801 114.059 26.801C119.714 26.801 122.73 30.165 123.223 34.979H117.887Z"></path>
</svg>
