<svg xmlns="http://www.w3.org/2000/svg" fill="none" viewBox="0 0 86 102" height="102" width="86">
<path fill="black" d="M48.4352 9.77951C47.3874 9.77951 46.5392 10.6277 46.5392 11.6789V56.9041C46.5392 57.9519 47.3874 58.8035 48.4352 58.8035C49.483 58.8035 50.3312 57.9519 50.3312 56.9041V11.6789C50.3346 10.6311 49.483 9.77951 48.4352 9.77951Z"></path>
<path fill="black" d="M56.7777 13.0859C55.7299 13.0859 54.8817 13.9341 54.8817 14.9853V53.6044C54.8817 54.6522 55.7299 55.5037 56.7777 55.5037C57.8256 55.5037 58.6738 54.6522 58.6738 53.6044V14.9819C58.6771 13.9341 57.8256 13.0859 56.7777 13.0859Z"></path>
<path fill="black" d="M65.1203 20.354C64.0725 20.354 63.2242 21.2023 63.2242 22.2534V46.3063C63.2242 47.3541 64.0725 48.2057 65.1203 48.2057C66.1681 48.2057 67.0163 47.3575 67.0163 46.3063V22.2534C67.0163 21.2056 66.1681 20.354 65.1203 20.354Z"></path>
<path fill="black" d="M76.5655 34.2666C76.5679 32.6168 75.2339 31.2776 73.586 31.2752C71.9381 31.2729 70.6004 32.6083 70.598 34.258C70.5957 35.9078 71.9296 37.247 73.5775 37.2494C75.2254 37.2517 76.5632 35.9163 76.5655 34.2666Z"></path>
<path fill="black" d="M45.0391 4.72676C45.3917 4.23779 45.6012 3.63904 45.6012 2.98708C45.6012 1.3372 44.264 0 42.6175 0C40.9709 0 39.6337 1.3372 39.6337 2.98708C39.6337 3.75879 39.9298 4.46066 40.4088 4.98955C37.8408 8.0997 34.4679 9.98907 33.1639 10.6444C32.7082 9.57993 31.6505 8.83483 30.4197 8.83483C28.7698 8.83483 27.4359 10.172 27.4359 11.8219C27.4359 13.4718 28.7731 14.809 30.4197 14.809C31.095 14.809 31.7137 14.5828 32.2126 14.2036C35.509 19.2829 36.4404 25.2904 36.7032 28.2941C33.6928 28.0346 27.6821 27.1099 22.6027 23.8068C22.962 23.3145 23.1749 22.7091 23.1749 22.0538C23.1749 20.4039 21.8377 19.0667 20.1911 19.0667C18.5413 19.0667 17.2074 20.4039 17.2074 22.0538C17.2074 23.2945 17.9625 24.3556 19.0369 24.808C18.2884 26.3049 16.1463 30.1934 13.1592 32.2158C12.6137 31.6337 11.842 31.2712 10.9837 31.2712C9.33387 31.2712 8 32.6084 8 34.2582C8 35.9081 9.3372 37.2453 10.9837 37.2453C11.8453 37.2453 12.617 36.8794 13.1625 36.294C16.1496 38.3164 18.2884 42.2116 19.0369 43.7051C17.9625 44.1575 17.2074 45.2186 17.2074 46.4593C17.2074 48.1092 18.5446 49.4464 20.1911 49.4464C21.841 49.4464 23.1749 48.1092 23.1749 46.4593C23.1749 45.804 22.962 45.1986 22.6027 44.7063C27.6854 41.3999 33.6995 40.4752 36.7065 40.2191C36.4471 43.2195 35.5223 49.2136 32.2126 54.3096C31.7137 53.9337 31.0916 53.7042 30.4197 53.7042C28.7698 53.7042 27.4359 55.0414 27.4359 56.6912C27.4359 58.3411 28.7731 59.6783 30.4197 59.6783C31.6505 59.6783 32.7082 58.9332 33.1639 57.8688C34.4679 58.5207 37.8342 60.4001 40.4088 63.5236C39.9264 64.0525 39.6304 64.7543 39.6304 65.5294C39.6304 67.1793 40.9676 68.5165 42.6142 68.5165C44.2607 68.5165 45.5979 67.1793 45.5979 65.5294C45.5979 64.8807 45.3883 64.282 45.0357 63.7897C42.4711 59.3889 38.3531 56.5715 35.9481 55.211C40.472 47.4539 40.462 38.6723 40.4587 38.2765L40.4454 36.4769L38.6491 36.4603C38.25 36.457 29.475 36.4337 21.7213 40.9542C20.71 39.1247 18.9271 36.3372 16.4989 34.2516C18.9271 32.1693 20.71 29.3851 21.7213 27.5556C29.475 32.0761 38.2533 32.0529 38.6525 32.0495L40.4487 32.0329L40.462 30.2333C40.4653 29.8375 40.4753 21.0559 35.9514 13.2988C38.3597 11.945 42.4778 9.13087 45.0391 4.72676Z"></path>
<path fill="black" d="M6.52733 91.8316C2.86834 91.8316 0 89.0887 0 85.5883C0 82.0496 2.80693 79.3808 6.52733 79.3808C10.1863 79.3808 13.0547 82.1084 13.0547 85.5883C13.0547 89.0912 10.1889 91.8316 6.52733 91.8316ZM6.54525 81.1361C4.04025 81.1361 2.00349 83.1345 2.00349 85.5909C2.00349 88.0652 4.04025 90.0789 6.54525 90.0789C9.01954 90.0789 11.0333 88.0652 11.0333 85.5909C11.0358 83.0936 9.06304 81.1361 6.54525 81.1361Z"></path>
<path fill="black" d="M19.4337 91.8137C16.6677 91.8137 14.7358 89.8742 14.7358 87.098C14.7358 84.3013 16.6677 82.349 19.4337 82.349C21.0636 82.349 22.3839 82.8607 23.2564 83.8305L22.2201 85.0484C21.5344 84.3704 20.6286 84.0121 19.5949 84.0121H19.5258C17.8345 84.0121 16.6523 85.2813 16.6523 87.098C16.6523 88.9147 17.8345 90.1838 19.5258 90.1838C20.7054 90.1838 21.6675 89.8026 22.3174 89.0759L23.3639 90.1224C22.4965 91.2303 21.1404 91.8137 19.4337 91.8137Z"></path>
<path fill="black" d="M29.4073 91.8137C26.6413 91.8137 24.7095 89.8742 24.7095 87.098C24.7095 84.3013 26.6413 82.349 29.4073 82.349C31.0372 82.349 32.3575 82.8607 33.2301 83.8305L32.1938 85.0484C31.508 84.3704 30.6022 84.0121 29.5685 84.0121H29.4994C27.8081 84.0121 26.626 85.2813 26.626 87.098C26.626 88.9147 27.8081 90.1838 29.4994 90.1838C30.679 90.1838 31.6411 89.8026 32.291 89.0759L33.3375 90.1224C32.4701 91.2303 31.114 91.8137 29.4073 91.8137Z"></path>
<path fill="black" d="M35.62 91.7446V82.4232H37.516V91.7446H35.62ZM36.5668 80.8163C35.9245 80.8163 35.4409 80.3173 35.4409 79.6546C35.4409 78.9817 35.9245 78.4751 36.5668 78.4751C37.209 78.4751 37.6926 78.9817 37.6926 79.6546C37.6926 80.3173 37.209 80.8163 36.5668 80.8163Z"></path>
<path fill="black" d="M43.9464 91.8316C43.3399 91.8316 41.3646 91.6372 41.3646 89.1424V84.1733H40.0315V82.7763H41.3646V80.1817H43.2606V82.7763H46.0496V84.1733H43.2606V88.7688C43.2606 89.6976 43.5932 90.1121 44.3378 90.1121C44.7319 90.1121 45.1618 89.9944 45.7196 89.7283L46.1955 91.1715C45.4483 91.6116 44.6935 91.8316 43.9464 91.8316Z"></path>
<path fill="black" d="M51.0237 91.8316C49.1047 91.8316 47.7665 90.6521 47.7665 88.9659C47.7665 87.2694 49.1098 86.205 51.2745 86.1871H54.1991V85.8365C54.1991 84.57 53.3752 83.8714 51.8784 83.8714C50.97 83.8714 50.0386 84.1836 49.1098 84.8028L48.3422 83.4978C49.6599 82.72 50.6041 82.349 52.321 82.349C54.6904 82.349 56.0593 83.5362 56.0772 85.6088L56.0952 91.7446H54.217V90.5548L53.7974 90.9335C53.1475 91.522 52.188 91.8316 51.0237 91.8316ZM51.5764 87.5509C50.1794 87.5509 49.5576 87.9603 49.5576 88.8763C49.5576 89.7693 50.3022 90.345 51.4536 90.345C52.9351 90.345 54.0917 89.5646 54.2017 88.4925V87.5509H51.5764Z"></path>
<path fill="black" d="M66.2865 91.7446V86.4967C66.2865 85.0433 65.3909 84.1401 63.9478 84.1401C62.4074 84.158 61.3558 85.1687 61.1997 86.7756V91.7446H59.2858V82.4232H61.1997V84.2731L61.65 83.6769C62.3153 82.7967 63.3567 82.3515 64.7461 82.3515C66.875 82.3515 68.1978 83.723 68.1978 85.9286V91.7446H66.2865Z"></path>
<path fill="black" d="M71.3938 91.7446V82.4232H73.2899V91.7446H71.3938ZM72.3406 80.8163C71.6983 80.8163 71.2147 80.3173 71.2147 79.6546C71.2147 78.9817 71.6983 78.4751 72.3406 78.4751C72.9828 78.4751 73.4664 78.9817 73.4664 79.6546C73.4664 80.3173 72.9828 80.8163 72.3406 80.8163Z"></path>
<path fill="black" d="M80.6437 91.8137C77.7908 91.8137 75.8768 89.9203 75.8768 87.098C75.8768 84.3192 77.8163 82.3669 80.5926 82.349C82.0152 82.349 83.1129 82.7532 83.855 83.549C84.7147 84.4727 85.0857 85.9031 84.9578 87.7991H77.7805L77.8752 88.1189C78.2692 89.4597 79.3925 90.2913 80.8101 90.2913C81.831 90.2913 82.7726 89.91 83.4737 89.2192L84.469 90.281C83.5249 91.2841 82.2046 91.8137 80.6437 91.8137ZM80.6079 83.8535C79.1622 83.8535 78.1183 84.7056 77.8138 86.1333L77.7498 86.4353H83.3176L83.2895 86.1589C83.136 84.7158 82.1355 83.8535 80.6079 83.8535Z"></path>
<path fill="black" d="M0 75.8344L0.0204742 69.0333L1.26914 69.0538L1.24866 74.6907L4.1605 74.7111L4.14004 75.8344H0Z"></path>
<path fill="black" d="M6.56826 75.883C5.48847 75.883 4.73364 75.2152 4.73364 74.2582C4.73364 73.2808 5.47056 72.6897 6.70131 72.6821H8.16747L8.18793 72.5797C8.18793 71.9451 7.78622 71.6099 7.02627 71.6099C6.54523 71.6099 6.05139 71.7814 5.55756 72.1166L5.49359 72.1601L4.99975 71.2773L5.05348 71.2696C5.7904 70.8321 6.30983 70.6223 7.26423 70.6223C8.58966 70.6223 9.35728 71.2901 9.36751 72.4569L9.37775 75.8574L8.1777 75.837L8.19817 75.3508V75.3022L8.16491 75.3355C7.79645 75.6911 7.24376 75.883 6.56826 75.883ZM6.86507 73.5827C6.1563 73.5827 5.86717 73.7644 5.86717 74.2096C5.86717 74.642 6.22539 74.9133 6.79854 74.9133C7.54825 74.9133 8.1342 74.5269 8.18793 73.9947V73.6032L6.86507 73.5827Z"></path>
<path fill="black" d="M13.252 75.8344L13.2724 69.0333L16.0333 69.0538C17.7758 69.0538 18.7737 69.9033 18.7737 71.3848C18.7737 72.4236 18.3003 73.1964 17.438 73.5648L18.9323 75.8344H17.5174L16.3148 73.8258C16.2124 73.8207 16.1229 73.8207 16.0307 73.8207H14.5185L14.4981 75.8549L13.252 75.8344ZM14.4981 72.6872L16.0307 72.7076C17.0721 72.7076 17.6018 72.2727 17.6018 71.4129C17.6018 70.5864 17.0721 70.1668 16.0307 70.1668H14.4981V72.6872Z"></path>
<path fill="black" d="M22.2712 75.8728C20.6874 75.8728 19.6255 74.8212 19.6255 73.2552C19.6255 71.7123 20.7027 70.6274 22.2431 70.6197C23.0337 70.6197 23.6427 70.8449 24.0572 71.2901C24.5408 71.8095 24.7455 72.6104 24.6688 73.6697L24.6636 73.7363L20.8742 73.7183C21.0456 74.4476 21.6213 74.8851 22.3582 74.8851C22.8955 74.8851 23.3894 74.6804 23.7527 74.3094L23.8039 74.2557L24.4538 74.9772L24.4103 74.9977C23.8832 75.5709 23.1463 75.8728 22.2712 75.8728ZM22.2508 71.5972C21.5164 71.5972 20.9714 72.0526 20.8281 72.787L23.589 72.81C23.5429 72.0449 23.0363 71.5972 22.2508 71.5972ZM21.4447 70.0338L22.5476 68.496L23.8116 69.0487L22.5348 70.0338H21.4447Z"></path>
<path fill="black" d="M27.8879 77.7151C27.133 77.7151 26.414 77.4874 25.7513 77.0396L25.695 77.0012L26.2426 76.1108L26.2759 76.1645C26.7825 76.5406 27.2661 76.7069 27.8393 76.7069C28.7758 76.7069 29.3822 76.1619 29.3822 75.3175V74.8442L29.3463 74.8902C28.983 75.3457 28.4329 75.5888 27.7548 75.5888C26.3552 75.5888 25.4136 74.5832 25.4136 73.0863C25.4136 71.6227 26.3398 70.6325 27.7164 70.6223C28.4226 70.6223 28.9702 70.8577 29.3463 71.3234L29.3822 71.3669V70.6376L30.5925 70.6581L30.572 75.2894C30.572 76.7607 29.5178 77.7151 27.8879 77.7151ZM27.9723 71.6074C27.1407 71.6074 26.5548 72.2266 26.5445 73.1119C26.5548 74.0177 27.1279 74.6241 27.9723 74.6241C28.8013 74.6241 29.3822 74.0024 29.3822 73.1094C29.3822 72.2266 28.8013 71.6074 27.9723 71.6074Z"></path>
<path fill="black" d="M31.9741 75.8344L31.9946 70.6376L33.2049 70.6581L33.1844 75.8344H31.9741ZM32.5908 69.9672C32.1967 69.9672 31.8999 69.6628 31.8999 69.2585C31.8999 68.8491 32.1967 68.5395 32.5908 68.5395C32.9848 68.5395 33.2816 68.8491 33.2816 69.2585C33.2791 69.6628 32.9822 69.9672 32.5908 69.9672Z"></path>
<path fill="black" d="M36.9302 75.8728C35.3386 75.8728 34.2256 74.793 34.2256 73.245C34.2256 71.6739 35.313 70.6171 36.9302 70.6171C38.5166 70.6171 39.6245 71.6969 39.6245 73.245C39.6245 74.793 38.5166 75.8728 36.9302 75.8728ZM36.9302 71.6662C36.0448 71.6662 35.4256 72.3213 35.4256 73.2578C35.4256 74.2147 36.0295 74.857 36.9302 74.857C37.8104 74.857 38.4245 74.1994 38.4245 73.2578C38.4245 72.3187 37.8104 71.6662 36.9302 71.6662Z"></path>
<path fill="black" d="M40.6455 75.8344L40.666 70.6376L41.8839 70.6581L41.8635 71.4232V71.4897L41.9018 71.436C42.2729 70.8961 42.8742 70.6197 43.6827 70.6197C44.8802 70.6197 45.6222 71.3899 45.6222 72.6258V75.8344H44.4043L44.4248 72.9303C44.4248 72.1908 43.9872 71.7507 43.2554 71.7507C42.4776 71.7609 41.9453 72.2727 41.866 73.0889V75.8549L40.6455 75.8344Z"></path>
<path fill="black" d="M2.1339 95.1068C3.38512 95.1068 4.10157 95.726 4.10157 96.8058C4.10157 97.9291 3.38256 98.5816 2.1339 98.5816H0.990144V100.081H0.150879V95.1068H2.1339ZM0.990144 97.8267H2.09808C2.8657 97.8267 3.29813 97.4992 3.29813 96.8237C3.29813 96.1687 2.8657 95.8565 2.09808 95.8565H0.990144V97.8267Z"></path>
<path fill="black" d="M6.54539 100.6C6.30998 101.197 5.88523 101.496 5.31719 101.496C4.97688 101.496 4.70565 101.396 4.44211 101.176L4.79009 100.544C4.96664 100.672 5.10993 100.728 5.28137 100.728C5.52957 100.728 5.72915 100.593 5.85708 100.309L5.98502 100.025L4.42163 96.3017H5.26602L6.39697 99.165L7.44862 96.3017H8.26485L6.54539 100.6Z"></path>
<path fill="black" d="M9.6927 97.054C9.94858 96.5423 10.404 96.2736 11.0002 96.2736V97.054C10.2403 97.0105 9.75667 97.4583 9.6927 98.1057V100.081H8.87646V96.2992H9.6927V97.054Z"></path>
<path fill="black" d="M15.0018 98.5022H12.1437C12.2717 99.0856 12.7194 99.4464 13.3156 99.4464C13.7276 99.4464 14.1037 99.2903 14.3826 99.0063L14.8151 99.4694C14.4466 99.8737 13.9041 100.109 13.2517 100.109C12.0849 100.109 11.3198 99.3338 11.3198 98.1977C11.3198 97.054 12.1079 96.2787 13.2312 96.271C14.5617 96.271 15.1016 97.1384 15.0018 98.5022ZM14.2905 97.906C14.2624 97.2945 13.8581 96.926 13.2389 96.926C12.6427 96.926 12.2231 97.3022 12.1309 97.906H14.2905ZM12.7143 95.7593L13.4666 94.7076L14.3059 95.0633L13.4385 95.7593H12.7143Z"></path>
<path fill="black" d="M19.4719 97.7269V100.078H18.6557V97.9547C18.6557 97.3866 18.3154 97.0386 17.7448 97.0386C17.1205 97.0463 16.729 97.4787 16.6727 98.0698V100.081H15.8564V96.2992H16.6727V97.0233C16.9439 96.4987 17.425 96.271 18.0646 96.271C18.9448 96.271 19.4719 96.8263 19.4719 97.7269Z"></path>
<path fill="black" d="M23.891 98.5022H21.0329C21.1608 99.0856 21.6086 99.4464 22.2048 99.4464C22.6168 99.4464 22.9929 99.2903 23.2718 99.0063L23.7042 99.4694C23.3358 99.8737 22.7933 100.109 22.1408 100.109C20.974 100.109 20.209 99.3338 20.209 98.1977C20.209 97.054 20.9971 96.2787 22.1204 96.271C23.4509 96.271 23.9908 97.1384 23.891 98.5022ZM23.1797 97.906C23.1515 97.2945 22.7472 96.926 22.128 96.926C21.5319 96.926 21.1122 97.3022 21.0201 97.906H23.1797ZM21.6035 95.7593L22.3558 94.7076L23.195 95.0633L22.3276 95.7593H21.6035Z"></path>
<path fill="black" d="M28.0692 98.5022H25.2111C25.3391 99.0856 25.7868 99.4464 26.383 99.4464C26.795 99.4464 27.1711 99.2903 27.45 99.0063L27.8824 99.4694C27.514 99.8737 26.9715 100.109 26.3191 100.109C25.1523 100.109 24.3872 99.3338 24.3872 98.1977C24.3872 97.054 25.1753 96.2787 26.2986 96.271C27.6291 96.271 28.169 97.1384 28.0692 98.5022ZM27.3579 97.906C27.3298 97.2945 26.9255 96.926 26.3063 96.926C25.7101 96.926 25.2904 97.3022 25.1983 97.906H27.3579Z"></path>
<path fill="black" d="M31.3727 96.6472L31.0733 97.251C30.7381 97.0438 30.321 96.9158 29.9858 96.9158C29.666 96.9158 29.4306 97.0233 29.4306 97.292C29.4306 97.9879 31.4417 97.6118 31.4341 98.9833C31.4341 99.7586 30.7458 100.107 29.9833 100.107C29.428 100.107 28.8395 99.9223 28.4634 99.5795L28.7551 98.9961C29.0826 99.2878 29.6071 99.4643 30.0191 99.4643C30.3671 99.4643 30.6383 99.3441 30.6383 99.0601C30.6383 98.2848 28.6476 98.7197 28.6553 97.3534C28.6553 96.5858 29.3231 96.2582 30.0472 96.2582C30.5257 96.2634 31.0323 96.4066 31.3727 96.6472Z"></path>
<path fill="black" d="M33.9236 98.1978V97.6374H35.6712V98.1978H33.9236Z"></path>
<path fill="black" d="M43.0763 100.081L43.0686 96.3631L41.4975 99.5616H40.95L39.3789 96.3631V100.081H38.5908V95.1068H39.5862L41.2289 98.4127L42.8639 95.1068H43.8516V100.081H43.0763Z"></path>
<path fill="black" d="M48.4395 98.5022H45.5814C45.7093 99.0856 46.1571 99.4464 46.7533 99.4464C47.1652 99.4464 47.5413 99.2903 47.8203 99.0063L48.2527 99.4694C47.8842 99.8737 47.3418 100.109 46.6893 100.109C45.5225 100.109 44.7574 99.3338 44.7574 98.1977C44.7574 97.054 45.5455 96.2787 46.6688 96.271C47.9994 96.271 48.5393 97.1384 48.4395 98.5022ZM47.7281 97.906C47.7 97.2945 47.2957 96.926 46.6765 96.926C46.0803 96.926 45.6607 97.3022 45.5686 97.906H47.7281ZM46.152 95.7593L46.9042 94.7076L47.7435 95.0633L46.8761 95.7593H46.152Z"></path>
<path fill="black" d="M52.8942 100.081H52.0779V99.4336C51.8067 99.8737 51.3538 100.117 50.7499 100.117C49.6625 100.117 48.9384 99.3287 48.9384 98.1773C48.9384 97.0412 49.6702 96.2659 50.7371 96.2659C51.3487 96.2659 51.8041 96.5141 52.0805 96.9542V94.8074H52.8967V100.081H52.8942ZM52.0779 98.2054C52.0779 97.4736 51.602 96.9619 50.9188 96.9619C50.2356 96.9619 49.7597 97.4813 49.752 98.2054C49.7597 98.9244 50.228 99.4336 50.9188 99.4336C51.602 99.4336 52.0779 98.9219 52.0779 98.2054Z"></path>
<path fill="black" d="M55.0179 95.2194C55.0179 95.5034 54.8106 95.7106 54.542 95.7106C54.2707 95.7106 54.066 95.5034 54.066 95.2194C54.066 94.9277 54.2733 94.723 54.542 94.723C54.8132 94.723 55.0179 94.9277 55.0179 95.2194ZM54.1377 100.081V96.2992H54.9488V100.081H54.1377Z"></path>
<path fill="black" d="M58.2957 99.8379C57.9964 100.014 57.6842 100.114 57.3644 100.114C56.7963 100.114 56.305 99.7867 56.305 99.014V97.0514H55.7728V96.4399H56.305V95.4036H57.1162V96.4399H58.2318V97.0514H57.1162V98.863C57.1162 99.2545 57.2646 99.3748 57.5204 99.3748C57.6919 99.3748 57.8684 99.3185 58.0885 99.211L58.2957 99.8379Z"></path>
<path fill="black" d="M62.3308 98.5022H59.4727C59.6007 99.0856 60.0484 99.4464 60.6446 99.4464C61.0566 99.4464 61.4327 99.2903 61.7116 99.0063L62.144 99.4694C61.7756 99.8737 61.2331 100.109 60.5806 100.109C59.4139 100.109 58.6488 99.3338 58.6488 98.1977C58.6488 97.054 59.4369 96.2787 60.5602 96.271C61.8907 96.271 62.4306 97.1384 62.3308 98.5022ZM61.6195 97.906C61.5913 97.2945 61.1871 96.926 60.5679 96.926C59.9717 96.926 59.552 97.3022 59.4599 97.906H61.6195Z"></path>
<path fill="black" d="M63.9991 97.054C64.255 96.5423 64.7104 96.2736 65.3066 96.2736V97.054C64.5467 97.0105 64.0631 97.4583 63.9991 98.1057V100.081H63.1829V96.2992H63.9991V97.054Z"></path>
<path fill="black" d="M66.8011 97.054C67.057 96.5423 67.5124 96.2736 68.1086 96.2736V97.054C67.3487 97.0105 66.8651 97.4583 66.8011 98.1057V100.081H65.9849V96.2992H66.8011V97.054Z"></path>
<path fill="black" d="M70.9 99.6179C70.6313 99.9531 70.1964 100.114 69.6488 100.114C68.8325 100.114 68.3208 99.6102 68.3208 98.9424C68.3208 98.2541 68.8402 97.8114 69.7486 97.8063H70.8923V97.6937C70.8923 97.2178 70.5878 96.9338 69.9891 96.9338C69.6258 96.9338 69.2496 97.0617 68.8735 97.3176L68.5383 96.7495C69.0628 96.4374 69.4492 96.2736 70.1657 96.2736C71.1405 96.2736 71.6855 96.77 71.6932 97.6016L71.7009 100.081H70.8974V99.6179H70.9ZM70.8923 98.7505V98.4025H69.8688C69.3366 98.4025 69.0884 98.5458 69.0884 98.9065C69.0884 99.2469 69.3648 99.4669 69.8202 99.4669C70.4036 99.4695 70.8514 99.165 70.8923 98.7505Z"></path>
<path fill="black" d="M76.4141 97.7269V100.078H75.5978V97.9547C75.5978 97.3866 75.2575 97.0386 74.6869 97.0386C74.0626 97.0463 73.6711 97.4787 73.6148 98.0698V100.081H72.7986V96.2992H73.6148V97.0233C73.886 96.4987 74.3671 96.271 75.0068 96.271C75.887 96.271 76.4141 96.8263 76.4141 97.7269Z"></path>
<path fill="black" d="M80.833 98.5022H77.9749C78.1028 99.0856 78.5506 99.4464 79.1468 99.4464C79.5588 99.4464 79.9349 99.2903 80.2138 99.0063L80.6462 99.4694C80.2778 99.8737 79.7353 100.109 79.0828 100.109C77.9161 100.109 77.151 99.3338 77.151 98.1977C77.151 97.054 77.9391 96.2787 79.0624 96.271C80.3929 96.271 80.9328 97.1384 80.833 98.5022ZM80.1217 97.906C80.0935 97.2945 79.6893 96.926 79.0701 96.926C78.4739 96.926 78.0542 97.3022 77.9621 97.906H80.1217ZM78.5455 95.7593L79.2978 94.7076L80.137 95.0633L79.2696 95.7593H78.5455Z"></path>
<path fill="black" d="M85.0114 98.5022H82.1533C82.2812 99.0856 82.729 99.4464 83.3252 99.4464C83.7371 99.4464 84.1132 99.2903 84.3921 99.0063L84.8246 99.4694C84.4561 99.8737 83.9137 100.109 83.2612 100.109C82.0944 100.109 81.3293 99.3338 81.3293 98.1977C81.3293 97.054 82.1174 96.2787 83.2407 96.271C84.5713 96.271 85.1111 97.1384 85.0114 98.5022ZM84.3 97.906C84.2719 97.2945 83.8676 96.926 83.2484 96.926C82.6522 96.926 82.2326 97.3022 82.1405 97.906H84.3Z"></path>
</svg>
