<svg xmlns="http://www.w3.org/2000/svg" fill="none" viewBox="0 0 63 76" height="76" width="63">
<path fill="black" d="M3.34521 16.788C2.43131 15.8718 1.96854 14.7471 1.73239 13.8319C1.50207 12.9364 1.48724 12.2414 1.48618 12.1165C1.46447 11.9646 1.40199 11.4713 1.40199 10.8166C1.40411 9.66482 1.58996 8.01238 2.57534 6.86753C3.24725 6.08841 4.19768 5.69303 5.35884 5.69515C6.70109 5.6925 7.70447 6.09106 8.36421 6.9194C9.00012 7.71915 9.14943 8.71633 9.14943 9.50074C9.14943 9.76327 9.13302 10.0004 9.11025 10.202C10.7098 9.57484 11.6253 8.50303 12.1569 7.40052C12.7145 6.24508 12.84 5.0563 12.8542 4.35182L12.8696 3.61028L12.885 2.9185L13.5743 2.84652L14.3114 2.76818C15.6632 2.62951 16.8836 1.58575 17.4809 0.971775L17.9707 0.46895L18.4287 0L18.9735 0.366797L19.5549 0.760589C21.5415 2.10075 24.4304 2.96296 26.8724 3.48643C29.2789 4.00407 31.2497 4.19726 31.5102 4.22108C31.7744 4.19726 33.7451 4.00407 36.1522 3.48643C38.5931 2.9619 41.4814 2.09969 43.4654 0.75953L44.0468 0.366797L44.5916 0L45.0507 0.46895L45.5415 0.971775C46.1372 1.58575 47.3582 2.62951 48.7116 2.76818L49.4476 2.84652L50.1348 2.9185L50.1518 3.61081L50.1671 4.35182C50.1814 5.0563 50.3059 6.24508 50.8634 7.40052C51.3955 8.50303 52.3105 9.57484 53.9101 10.202C53.8878 10.0009 53.8714 9.76433 53.8714 9.50233C53.8714 8.71845 54.0213 7.72074 54.6572 6.9194C54.9854 6.50708 55.4022 6.19798 55.9046 5.99526C56.4055 5.79254 56.9917 5.69515 57.6641 5.69515C58.8237 5.69303 59.7741 6.08841 60.4455 6.86753C61.4304 8.01238 61.6173 9.66323 61.6189 10.8155C61.6189 11.4692 61.5569 11.9619 61.5341 12.1165C61.5336 12.2181 61.522 12.9051 61.2948 13.8002C61.0608 14.7232 60.5996 15.8633 59.6756 16.788C58.551 17.9159 56.9896 18.4828 55.0691 18.4817C53.5638 18.4817 52.221 17.9927 51.0551 17.2479C49.8891 16.5027 48.8953 15.5024 48.0746 14.4681C46.5116 12.4997 45.5754 10.4132 45.2858 9.71987H36.7145V11.3517V17.466H36.7367V23.3443L36.7277 23.3395C36.7232 23.3369 36.7186 23.3341 36.7145 23.3316V35.7127H26.2884V22.4112H26.2926V17.014H26.2884V9.71987H17.734C17.5206 10.2322 16.9551 11.4993 16.0481 12.9189C15.077 14.4364 13.7163 16.129 11.9658 17.2474C10.7998 17.9927 9.45812 18.4817 7.95227 18.4817C6.03182 18.4828 4.46984 17.9159 3.34521 16.788ZM57.5616 22.1035C59.6573 22.1035 60.9223 23.1695 61.5894 24.6039C62.0072 25.5047 62.1878 26.5511 62.1878 27.57V27.615L62.1841 27.6605C62.1486 27.9929 61.8971 28.7673 61.4195 29.6279C61.0308 30.325 60.4939 31.0776 59.8014 31.699C58.9658 32.4479 57.9032 33.0053 56.6038 33.0376C56.5159 33.0397 56.4174 33.0344 56.3158 33.0254L56.299 33.0237L56.2761 33.0213L56.2756 33.0213C56.2617 33.0198 56.2478 33.0183 56.2332 33.0169C56.1368 33.0063 56.0346 32.9921 55.9261 32.9719L55.9216 32.9711L55.912 32.9696C55.9073 32.9689 55.9026 32.9683 55.8975 32.9672C55.7799 32.9455 55.6544 32.9164 55.5252 32.8846C55.4892 32.8756 55.4516 32.8661 55.4151 32.856C55.2986 32.8264 55.1789 32.793 55.0545 32.7549C55.0339 32.7496 55.0148 32.7443 54.9942 32.7375C54.8517 32.6951 54.7024 32.6454 54.551 32.594C54.5065 32.5787 54.4615 32.5633 54.416 32.5474C54.2852 32.5019 54.1523 32.4543 54.0141 32.4024C53.9828 32.3913 53.9516 32.3797 53.9198 32.368C53.7562 32.3066 53.5878 32.2405 53.4152 32.1717C53.3655 32.1515 53.3136 32.1304 53.2622 32.1092C53.1182 32.0504 52.9726 31.9901 52.8227 31.9271C52.7997 31.9171 52.7768 31.9075 52.7537 31.8978L52.7015 31.8758C52.5204 31.7985 52.334 31.717 52.1455 31.6328C52.092 31.609 52.0354 31.5841 51.9809 31.5598C51.8262 31.491 51.669 31.4195 51.5096 31.3465C51.4705 31.328 51.432 31.3105 51.3934 31.2929L51.3635 31.2793C51.1665 31.1877 50.9669 31.0945 50.7641 30.9982C50.7096 30.9712 50.6561 30.9453 50.6005 30.9199L50.4506 30.8477L50.4499 30.8474L50.4493 30.8471C50.3308 30.7902 50.2114 30.7327 50.0911 30.6738C50.078 30.6673 50.0647 30.6608 50.0513 30.6543C50.0441 30.6508 50.0369 30.6473 50.0296 30.6438L50.0294 30.6437C50.0093 30.634 49.989 30.6242 49.9688 30.6142C49.9569 30.6084 49.9451 30.6025 49.9333 30.5965C49.7252 30.4949 49.514 30.3901 49.3011 30.2837C49.2466 30.2572 49.191 30.2292 49.1365 30.2006C48.958 30.1111 48.7791 30.0212 48.5974 29.9291C48.5716 29.9156 48.5455 29.9023 48.5193 29.8889L48.5186 29.8886C48.4923 29.8752 48.466 29.8618 48.4397 29.8481C48.2178 29.7353 47.9949 29.621 47.7714 29.5046L47.6359 29.4342C47.5615 29.395 47.4868 29.3559 47.412 29.3168L47.4115 29.3165L47.411 29.3163C47.294 29.255 47.1766 29.1936 47.0593 29.1314L47.0293 29.116C47.0112 29.1066 46.9933 29.0971 46.9755 29.0876L46.901 29.0478C46.6801 28.9318 46.4612 28.8153 46.2405 28.6979L46.2402 28.6977L46.2137 28.6836L46.1646 28.657C46.1442 28.6461 46.1235 28.6351 46.1025 28.6244C45.9034 28.5174 45.7038 28.4095 45.5042 28.3015C45.4486 28.2719 45.3935 28.2422 45.3374 28.2115C45.1092 28.0882 44.8804 27.9638 44.6528 27.8389C44.621 27.822 44.5903 27.805 44.5585 27.7881L44.3106 27.652C44.1905 27.5861 44.0705 27.5202 43.9507 27.4546C43.9202 27.4372 43.889 27.42 43.8575 27.4027C43.8316 27.3883 43.8055 27.374 43.7796 27.3594C43.5557 27.236 43.3328 27.1116 43.112 26.9883C43.0862 26.9744 43.0618 26.9604 43.0373 26.9465L43.0371 26.9464L43.0188 26.9359C42.8864 26.8629 42.754 26.7893 42.6243 26.7157C40.6657 25.6201 38.8374 24.5642 37.3824 23.721V17.4691L45.1277 17.4781H45.8134L45.9505 18.1508C46.2317 19.5333 46.8703 21.6436 48.2993 23.6803C48.742 24.3101 49.2619 24.9342 49.8666 25.5254C49.8933 25.5515 49.9211 25.5771 49.9487 25.6025L49.9489 25.6028L49.9865 25.6376C49.9986 25.6488 50.0106 25.6601 50.0223 25.6715C50.1568 25.7969 50.2929 25.9207 50.4348 26.0446C50.5052 26.1049 50.5777 26.1658 50.6503 26.2267C50.789 26.3399 50.9298 26.4511 51.0749 26.5612L51.1193 26.5951C51.1762 26.6387 51.2329 26.6821 51.2909 26.7258C51.5107 26.8835 51.7352 27.0402 51.9713 27.1905L52.5469 27.5552C52.5855 27.1826 52.6168 26.8777 52.6168 26.8745C52.6634 26.2547 52.7481 25.8091 52.9493 25.4825C53.2405 24.6722 53.726 23.8274 54.4737 23.1854C55.2208 22.5434 56.2284 22.1035 57.5616 22.1035ZM61.8012 48.4788C61.0621 47.3085 59.2756 44.7758 56.3179 42.293C53.3602 39.8116 49.2323 37.3806 43.8088 36.4131L43.7362 36.3993H43.6616H37.4031H36.7142V36.3983H26.3066H25.2026L18.7879 36.3972C17.7385 36.3316 16.1278 35.8531 14.938 34.6384C14.0442 33.7248 13.3882 32.3952 13.3882 30.5126C13.3882 28.5187 14.5991 26.9547 15.6142 25.994C18.3394 23.4148 21.4946 21.7666 25.6808 21.9243V17.4809L14.5758 17.4756H14.3212L14.1104 17.6159C11.768 19.1704 8.36127 21.7031 5.50363 24.3866C3.9157 25.8781 2.49827 27.4157 1.52507 28.8585C0.746198 30.0129 0.252187 31.108 0.186002 32.0692L0.174353 32.2338L0.225713 32.3899C0.233655 32.4106 0.242657 32.436 0.251658 32.4641C0.253246 32.4693 0.254835 32.4741 0.256423 32.4789C0.260572 32.4906 0.265121 32.5028 0.269854 32.5154C0.275994 32.5318 0.282442 32.549 0.288722 32.5673L0.289414 32.569L0.289423 32.5691C0.29027 32.5713 0.291187 32.5737 0.292428 32.5757C0.319962 32.6498 0.354378 32.7377 0.396737 32.8367C0.397267 32.8393 0.397796 32.8414 0.398855 32.843L0.417755 32.8861L0.417775 32.8862C0.433615 32.9224 0.45011 32.9601 0.468218 32.9997C0.468747 33.0008 0.468747 33.0018 0.468747 33.0023C0.519578 33.1151 0.578351 33.24 0.647184 33.3755C0.648243 33.3781 0.649831 33.3813 0.651949 33.3834C0.685307 33.4496 0.720783 33.5173 0.758376 33.5888C0.75921 33.5893 0.759606 33.5903 0.760024 33.5914C0.760402 33.5923 0.760798 33.5933 0.761553 33.5941C0.839387 33.7381 0.926223 33.8926 1.02418 34.0551C1.02788 34.062 1.03106 34.0678 1.03477 34.0742C1.08242 34.152 1.13113 34.2313 1.18249 34.3123L1.18254 34.3124C1.18321 34.3136 1.18387 34.3147 1.18454 34.3159C1.18598 34.3184 1.18741 34.3208 1.18885 34.3229C1.29686 34.4923 1.41494 34.6696 1.54625 34.8527L1.55252 34.8624C1.55795 34.8708 1.5636 34.8797 1.57008 34.8877C1.62938 34.9713 1.69292 35.057 1.75805 35.1438L1.76282 35.1504L1.76284 35.1504C1.76629 35.1552 1.76999 35.1604 1.77393 35.165C1.91424 35.3529 2.06832 35.5456 2.23405 35.7446C2.24161 35.7547 2.2501 35.7645 2.25852 35.7743C2.26427 35.781 2.26999 35.7877 2.27535 35.7943L2.28718 35.8083L2.28723 35.8083C2.35752 35.8912 2.42896 35.9753 2.50515 36.0595C2.51296 36.0681 2.52014 36.0771 2.52717 36.0859L2.53321 36.0934C2.62587 36.1966 2.71959 36.3003 2.81755 36.4046L2.81921 36.4062C2.82172 36.4086 2.82473 36.4116 2.82602 36.4141C2.91762 36.5105 3.01081 36.6068 3.10665 36.7047C3.12836 36.7264 3.15006 36.7481 3.17177 36.7703L3.19847 36.7969C3.2776 36.8756 3.35752 36.955 3.44128 37.0345C3.45823 37.0503 3.47464 37.0662 3.49158 37.0826C3.60119 37.1885 3.71503 37.2933 3.83257 37.3991C3.83646 37.4029 3.84045 37.4064 3.8445 37.4099C3.8467 37.4118 3.84892 37.4137 3.85114 37.4156C3.85364 37.4178 3.85615 37.4199 3.85866 37.4221C3.86269 37.4256 3.86672 37.4292 3.8707 37.433C3.97342 37.5251 4.0772 37.6167 4.18521 37.7082C4.21342 37.7327 4.24122 37.7563 4.26934 37.7802L4.27999 37.7892C4.38059 37.8744 4.48331 37.9602 4.58921 38.0459L4.62292 38.0728L4.66439 38.1057C4.79465 38.2105 4.92861 38.3153 5.06628 38.4201C5.07692 38.4283 5.08794 38.4364 5.09903 38.4446C5.11387 38.4556 5.12881 38.4666 5.14305 38.4778C5.25636 38.5625 5.37126 38.6472 5.4888 38.7319C5.53116 38.7631 5.57405 38.7938 5.61747 38.8245C5.72077 38.8977 5.82623 38.9699 5.93385 39.0437L5.93477 39.0443L5.96852 39.0675L6.07336 39.1389C6.22532 39.2411 6.38099 39.3422 6.53931 39.4433C6.55697 39.4546 6.57527 39.4657 6.59369 39.4768C6.61666 39.4907 6.63981 39.5048 6.66215 39.5195C6.78446 39.5968 6.90836 39.6724 7.03596 39.7492C7.09315 39.7836 7.15033 39.8175 7.20752 39.8513C7.32219 39.9189 7.43773 39.9847 7.55565 40.0519L7.55605 40.0521L7.59563 40.0747L7.65031 40.1056L7.65051 40.1057C7.68018 40.1225 7.70982 40.1393 7.73965 40.1557C7.91332 40.2525 8.09123 40.3478 8.27178 40.4426C8.31087 40.4639 8.35119 40.4843 8.39123 40.5045L8.44652 40.5325C8.57783 40.6008 8.71126 40.668 8.84787 40.7358C8.88926 40.7554 8.93083 40.7759 8.97237 40.7964C9.00469 40.8123 9.03699 40.8282 9.06919 40.8438C9.18705 40.9011 9.30721 40.9573 9.42772 41.0136L9.49013 41.0428C9.52017 41.0564 9.54946 41.0701 9.57867 41.0839C9.5903 41.0894 9.60191 41.0948 9.61355 41.1003C9.62163 41.1041 9.62973 41.1078 9.63786 41.1116H9.63892C11.7256 42.0606 14.2582 42.9101 17.3302 43.5442C18.7016 43.8279 20.1815 44.0682 21.7758 44.255C22.848 44.3805 23.9716 44.4826 25.1502 44.5567L25.381 44.5635L25.3869 44.5636C25.586 44.5695 25.9027 44.5789 26.3066 44.5906L36.7142 44.9082V44.9034L37.3782 44.9235C38.4165 45.0495 39.3796 45.222 40.2575 45.4396C41.0872 45.6449 41.8412 45.8879 42.5115 46.17C43.5006 46.5839 44.3081 47.0783 44.908 47.6451C45.8489 48.5343 46.3069 49.567 46.3069 50.8023C46.3069 51.4333 46.2163 52.0266 46.0374 52.5807C45.7737 53.3895 45.3215 54.1141 44.683 54.7471C43.8829 55.5384 42.8531 56.1122 41.7856 56.5287C41.6199 56.5928 41.4526 56.6536 41.2863 56.7108C39.8382 57.2067 38.3741 57.4327 37.3554 57.5365V63.2544L37.5047 63.2412C38.9777 63.0628 41.1767 62.6854 43.7553 61.8904C46.9555 60.9038 50.7419 59.2741 54.4536 56.5838C56.993 54.7434 59.4996 52.4061 61.7599 49.4378L62.1142 48.9726L61.8012 48.4788ZM25.6809 62.5695V57.2009C25.5088 57.158 25.3923 57.1257 25.3923 57.1257C24.139 56.7965 22.9434 56.3588 21.805 55.8401C20.8308 55.396 19.8994 54.8927 19.0093 54.3475C18.0086 53.7357 17.0592 53.0709 16.1628 52.377C15.0329 51.5063 13.985 50.5906 13.0171 49.6802C11.5372 48.2903 10.2426 46.9142 9.12701 45.728C8.47309 45.0331 7.89437 44.4265 7.37918 43.9046C5.75418 42.2612 4.74551 41.4688 3.91263 41.4456C2.48249 41.4053 1.522 42.0622 0.910444 42.8916C0.388901 43.5976 0.119922 44.4302 0.0293796 45.0648C-0.0759882 45.7889 0.109861 46.4775 0.46197 47.11C0.815137 47.7425 1.33562 48.3205 1.89635 48.8212C2.20027 49.0933 2.51849 49.3426 2.82771 49.567C3.87005 50.3223 4.82688 50.7869 4.92952 50.8367L4.93825 50.841C5.02147 50.8785 5.1078 50.9189 5.19311 50.9587L5.28665 51.0024C5.21464 51.2099 5.15481 51.3814 5.15481 51.3814C4.91336 52.0747 4.84294 53.4064 5.63717 54.8413C5.92044 55.3516 6.31173 55.875 6.8444 56.3874C7.8753 57.3787 9.12595 57.9334 10.2792 58.241C12.089 58.7221 13.6589 58.5945 13.7642 58.585C13.7664 58.585 13.8474 58.5781 13.9427 58.5681L14.0788 58.6792C14.5775 59.0931 15.2013 59.4726 15.9002 59.8225C16.8469 60.2951 17.9329 60.709 19.0342 61.0647C19.6733 61.2711 20.3166 61.4575 20.942 61.6258C22.5775 62.0635 24.0882 62.3699 25.0513 62.5473L25.6809 62.5695ZM38.8988 69.9663L39.0767 70.2029L39.2429 70.4252L39.2408 70.4792L39.2329 70.6994L39.2228 70.9948L39.1519 73.2897L39.1175 74.3653L39.0846 75.3693L38.1173 75.0973L37.0821 74.8051C35.7658 74.4335 33.74 73.9911 31.5797 73.9916H31.4388C29.2796 73.9911 27.2554 74.4335 25.9385 74.8051L24.9029 75.0973L23.935 75.3704L23.9032 74.3647L23.8698 73.2897L23.7973 70.9948L23.7867 70.6994L23.7788 70.4252L23.8111 70.3813L23.944 70.2029L24.1208 69.9669L26.2541 67.1262L26.306 67.0558V63.3111H26.3145V55.5475H26.306V46.5019V45.3719L36.7136 45.6159V46.5612V57.5651H36.721V63.31L36.7136 63.3111V67.0547C37.0848 67.5491 38.8988 69.9663 38.8988 69.9663Z" clip-rule="evenodd" fill-rule="evenodd"></path>
</svg>
